<svg xmlns="http://www.w3.org/2000/svg" viewBox="0 0 745.6 581.93"><defs><style>.a{fill:#edf9f5;}.b{fill:#a9e2d3;}.c{fill:none;stroke:#a9e2d3;stroke-linecap:round;stroke-linejoin:round;}</style></defs><title>Asset 16</title><rect class="a" x="229.13" width="123.45" height="581.93"/><path class="b" d="M1,496.73a1,1,0,0,1-1-1V404.15a1,1,0,0,1,.53-.88L38,383.55a1,1,0,0,1,1.47.88V476a1,1,0,0,1-.53.88L1.47,496.61A1,1,0,0,1,1,496.73Zm1-92v89.31L37.46,475.4V386.09ZM38.46,476h0Z"/><path class="b" d="M159.69,496.73a1,1,0,0,1-1-1V404.15a1,1,0,0,1,.53-.88l37.46-19.72a1,1,0,0,1,1.47.88V476a1,1,0,0,1-.53.88l-37.46,19.72A1,1,0,0,1,159.69,496.73Zm1-92v89.31l35.46-18.67V386.09ZM197.16,476h0Z"/><path class="b" d="M197.16,385.43H38.46a1,1,0,0,1,0-2h158.7a1,1,0,1,1,0,2Z"/><path class="b" d="M159.69,405.15H1a1,1,0,0,1,0-2H159.69a1,1,0,0,1,0,2Z"/><path class="b" d="M197.16,477H38.46a1,1,0,1,1,0-2h158.7a1,1,0,0,1,0,2Z"/><path class="b" d="M159.69,496.73H1a1,1,0,0,1,0-2H159.69a1,1,0,1,1,0,2Z"/><path class="c" d="M270.23,376.79"/><path class="c" d="M174.31,472.49"/><path class="c" d="M270.23,463.42"/><path class="c" d="M185.37,429.43"/><path class="c" d="M185.84,429.16"/><path class="c" d="M270.23,547.85"/><path class="c" d="M270.23,463.42"/><path class="c" d="M174.31,472.49"/><path class="b" d="M180.57,148.83H128.71V97h51.86Zm-49.86-2h47.86V99H130.71Z"/><path class="b" d="M180.57,248.56H128.71V196.7h51.86Zm-49.86-2h47.86V198.7H130.71Z"/><path class="b" d="M180.57,298.43H128.71V246.56h51.86Zm-49.86-2h47.86V248.56H130.71Z"/><path class="b" d="M180.57,198.7H128.71V146.83h51.86Zm-49.86-2h47.86V148.83H130.71Z"/><path class="c" d="M313.42,394.9"/><path class="b" d="M317.63,148H265.76V96.13h51.87Zm-49.87-2h47.87V98.13H267.76Z"/><path class="b" d="M317.63,247.72H265.76V195.86h51.87Zm-49.87-2h47.87V197.86H267.76Z"/><path class="b" d="M317.63,297.59H265.76V245.72h51.87Zm-49.87-2h47.87V247.72H267.76Z"/><path class="b" d="M317.63,197.86H265.76V146h51.87Zm-49.87-2h47.87V148H267.76Z"/><path class="b" d="M317.63,397.32H265.76V345.45h51.87Zm-49.87-2h47.87V347.45H267.76Z"/><path class="b" d="M317.63,447.18H265.76V395.32h51.87Zm-49.87-2h47.87V397.32H267.76Z"/><path class="b" d="M317.63,347.45H265.76V295.59h51.87Zm-49.87-2h47.87V297.59H267.76Z"/><path class="b" d="M567.15,297.59H515.29V245.72h51.87Zm-49.87-2h47.87V247.72H517.29Z"/><path class="b" d="M567.15,347.45H515.29V295.59h51.87Zm-49.87-2h47.87V297.59H517.29Z"/><path class="b" d="M567.15,397.32H515.29V345.45h51.87Zm-49.87-2h47.87V347.45H517.29Z"/><path class="b" d="M745.6,347.45H693.73V295.59H745.6Zm-49.87-2H743.6V297.59H695.73Z"/><path class="c" d="M313.42,494.63"/><path class="b" d="M317.63,497H265.76V445.18h51.87Zm-49.87-2h47.87V447.18H267.76Z"/><path class="b" d="M317.63,546.91H265.76V495h51.87Zm-49.87-2h47.87V497H267.76Z"/><path class="b" d="M266.76,123.4H179.57a.5.5,0,0,1,0-1h87.19a.5.5,0,0,1,0,1Z"/><path class="b" d="M266.76,173.27H179.57a.5.5,0,0,1,0-1h87.19a.5.5,0,0,1,0,1Z"/><path class="b" d="M266.76,223.13H179.57a.5.5,0,1,1,0-1h87.19a.5.5,0,0,1,0,1Z"/><path class="b" d="M266.76,272.15H179.57a.5.5,0,1,1,0-1h87.19a.5.5,0,0,1,0,1Z"/><path class="b" d="M197.16,384.93a.5.5,0,0,1-.33-.87l69.6-62.92a.5.5,0,1,1,.67.74l-69.6,62.92A.5.5,0,0,1,197.16,384.93Z"/><path class="b" d="M266.76,521.48h-.12L159.58,496.21a.5.5,0,0,1,.23-1l107.07,25.25a.5.5,0,0,1-.12,1Z"/><path class="b" d="M516.29,273a.5.5,0,0,1-.3-.1L316.33,123.3a.5.5,0,1,1,.6-.8L516.59,272.1a.5.5,0,0,1-.3.9Z"/><path class="b" d="M516.29,273a.5.5,0,0,1-.22-.05L316.4,173.21a.5.5,0,0,1,.45-.89L516.51,272a.5.5,0,0,1-.22.95Z"/><path class="b" d="M516.29,273l-.12,0L316.5,223.12a.5.5,0,1,1,.24-1L516.41,272a.5.5,0,0,1-.12,1Z"/><path class="b" d="M516.29,273h0l-199.66-.84a.5.5,0,0,1,0-1h0l199.66.84a.5.5,0,0,1,0,1Z"/><path class="b" d="M316.63,322a.5.5,0,0,1-.12-1l199.66-49a.5.5,0,0,1,.24,1L316.75,322Z"/><path class="b" d="M316.63,371.88a.5.5,0,0,1-.22-.95L516.07,272a.5.5,0,1,1,.44.9L316.85,371.83A.5.5,0,0,1,316.63,371.88Z"/><path class="b" d="M316.63,421.75a.5.5,0,0,1-.3-.9L516,272.09a.5.5,0,1,1,.6.8L316.92,421.65A.5.5,0,0,1,316.63,421.75Z"/><path class="b" d="M316.63,471.61a.5.5,0,0,1-.35-.85L515.93,272.14a.5.5,0,1,1,.71.71L317,471.47A.5.5,0,0,1,316.63,471.61Z"/><path class="b" d="M316.63,521.48a.5.5,0,0,1-.39-.81L515.9,272.18a.5.5,0,1,1,.78.63L317,521.29A.5.5,0,0,1,316.63,521.48Z"/><path class="b" d="M516.29,322.44a.5.5,0,0,1-.35-.15l-199.66-199a.5.5,0,1,1,.71-.71l199.66,199a.5.5,0,0,1-.35.85Z"/><path class="b" d="M516.29,322.44a.5.5,0,0,1-.3-.1L316.33,173.17a.5.5,0,1,1,.6-.8L516.59,321.54a.5.5,0,0,1-.3.9Z"/><path class="b" d="M516.29,322.44a.5.5,0,0,1-.22-.05L316.4,223.08a.5.5,0,0,1,.45-.9l199.66,99.31a.5.5,0,0,1-.22.95Z"/><path class="b" d="M516.29,322.44l-.12,0L316.5,272.14a.5.5,0,1,1,.24-1l199.66,50.29a.5.5,0,0,1-.12,1Z"/><path class="b" d="M516.29,322.44h0L316.63,322a.5.5,0,0,1,0-1h0l199.66.42a.5.5,0,0,1,0,1Z"/><path class="b" d="M316.63,371.88a.5.5,0,0,1-.12-1l199.66-49.44a.5.5,0,0,1,.24,1L316.75,371.87Z"/><path class="b" d="M316.63,421.75a.5.5,0,0,1-.22-.95l199.66-99.31a.5.5,0,0,1,.45.9L316.85,421.69A.5.5,0,0,1,316.63,421.75Z"/><path class="b" d="M316.63,471.61a.5.5,0,0,1-.3-.9L516,321.54a.5.5,0,1,1,.6.8L316.92,471.51A.49.49,0,0,1,316.63,471.61Z"/><path class="b" d="M316.63,521.48a.5.5,0,0,1-.35-.85l199.66-199a.5.5,0,1,1,.71.71L317,521.33A.5.5,0,0,1,316.63,521.48Z"/><path class="b" d="M516.29,371.88a.5.5,0,0,1-.39-.19L316.24,123.21a.5.5,0,1,1,.78-.63L516.68,371.07a.5.5,0,0,1-.39.81Z"/><path class="b" d="M516.29,371.88a.5.5,0,0,1-.35-.15L316.27,173.12a.5.5,0,0,1,.71-.71L516.64,371a.5.5,0,0,1-.35.85Z"/><path class="b" d="M516.29,371.88a.5.5,0,0,1-.3-.1L316.33,223a.5.5,0,1,1,.6-.8L516.59,371a.5.5,0,0,1-.3.9Z"/><path class="b" d="M516.29,371.88a.5.5,0,0,1-.22-.05L316.4,272.1a.5.5,0,0,1,.45-.89l199.66,99.73a.5.5,0,0,1-.22.95Z"/><path class="b" d="M516.29,371.88l-.12,0L316.5,322a.5.5,0,1,1,.24-1L516.41,370.9a.5.5,0,0,1-.12,1Z"/><path class="b" d="M516.29,371.88H316.63a.5.5,0,0,1,0-1H516.29a.5.5,0,0,1,0,1Z"/><path class="b" d="M316.63,421.75a.5.5,0,0,1-.12-1L516.17,370.9a.5.5,0,1,1,.24,1L316.75,421.73Z"/><path class="b" d="M316.63,471.61a.5.5,0,0,1-.22-.95l199.66-99.73a.5.5,0,0,1,.45.89L316.85,471.56A.5.5,0,0,1,316.63,471.61Z"/><path class="b" d="M316.63,521.48a.5.5,0,0,1-.3-.9L516,371a.5.5,0,1,1,.6.8L316.93,521.38A.5.5,0,0,1,316.63,521.48Z"/><path class="b" d="M694.73,322.44H566.15a.5.5,0,0,1,0-1H692.08L566,272.12a.5.5,0,1,1,.36-.93l128.58,50.29a.5.5,0,0,1-.18,1Z"/><path class="b" d="M566.15,372.3a.5.5,0,0,1-.18-1l128.58-49.86a.5.5,0,0,1,.36.93L566.33,372.27A.5.5,0,0,1,566.15,372.3Z"/><path class="b" d="M252.09,41.58c0-5.23,3.08-8.41,7.19-8.41a6,6,0,0,1,4.46,2l-1.13,1.34A4.41,4.41,0,0,0,259.32,35c-3.06,0-5.1,2.51-5.1,6.54s1.94,6.63,5,6.63A4.86,4.86,0,0,0,263,46.33l1.13,1.29a6.25,6.25,0,0,1-5,2.34C255.11,50,252.09,46.84,252.09,41.58Z"/><path class="b" d="M268.52,43.68c0-4,2.62-6.31,5.56-6.31s5.56,2.31,5.56,6.31S277,50,274.08,50,268.52,47.66,268.52,43.68Zm9,0c0-2.75-1.4-4.62-3.46-4.62s-3.46,1.87-3.46,4.62,1.4,4.59,3.46,4.59S277.54,46.43,277.54,43.68Z"/><path class="b" d="M285.27,37.67h1.68l.17,1.73h.07a5.73,5.73,0,0,1,4-2c2.53,0,3.67,1.63,3.67,4.69v7.6h-2V42.33c0-2.24-.68-3.19-2.26-3.19-1.23,0-2.08.63-3.28,1.84v8.69h-2Z"/><path class="b" d="M300.35,43.68c0-4,2.71-6.31,5.77-6.31a5,5,0,0,1,3.51,1.41l-1,1.34a3.47,3.47,0,0,0-2.38-1.06c-2.17,0-3.77,1.87-3.77,4.62s1.5,4.59,3.71,4.59a4.33,4.33,0,0,0,2.82-1.2l.88,1.36A5.83,5.83,0,0,1,306,50C302.78,50,300.35,47.66,300.35,43.68Z"/><path class="b" d="M314,46.55c0-2.62,2.26-3.92,7.37-4.48,0-1.54-.52-3-2.48-3a6.62,6.62,0,0,0-3.58,1.29l-.79-1.39a8.8,8.8,0,0,1,4.71-1.57c2.93,0,4.17,1.95,4.17,4.93v7.36h-1.68l-.17-1.43h-.07a6.37,6.37,0,0,1-4,1.73A3.26,3.26,0,0,1,314,46.55Zm7.37.19V43.41c-4,.48-5.38,1.47-5.38,3,0,1.36.93,1.92,2.1,1.92A4.94,4.94,0,0,0,321.34,46.74Z"/><path class="b" d="M329.65,46V39.32h-1.79V37.78l1.88-.12L330,34.3h1.7v3.37h3.25v1.65h-3.25V46c0,1.47.47,2.32,1.86,2.32A4,4,0,0,0,334.9,48l.39,1.53a7.2,7.2,0,0,1-2.23.44C330.51,50,329.65,48.35,329.65,46Z"/></svg>