<svg xmlns="http://www.w3.org/2000/svg" viewBox="0 0 773.78 400.34"><defs><style>.a{fill:#edf9f5;}.b{fill:#a9e2d3;}.c{fill:#fff;}.d,.e,.f{fill:none;stroke-linecap:round;stroke-linejoin:round;}.d,.f{stroke:#a9e2d3;}.d,.e{stroke-width:2px;}.e{stroke:#313754;}</style></defs><title>Asset 17</title><polygon class="a" points="179.02 299.43 1 393.13 1 94.7 179.02 1 179.02 299.43"/><path class="b" d="M1,394.13a1,1,0,0,1-1-1V94.7a1,1,0,0,1,.53-.88L178.55.11A1,1,0,0,1,180,1V299.43a1,1,0,0,1-.53.88L1.47,394A1,1,0,0,1,1,394.13ZM2,95.31V391.48l176-92.65V2.66ZM179,299.43h0Z"/><polygon class="c" points="189.95 305.63 11.93 399.34 11.93 100.91 189.95 7.2 189.95 305.63"/><path class="b" d="M11.93,400.34a1,1,0,0,1-1-1V100.91a1,1,0,0,1,.53-.88l178-93.71a1,1,0,0,1,1.47.89V305.63a1,1,0,0,1-.53.88l-178,93.7A1,1,0,0,1,11.93,400.34Zm1-298.82V397.68l176-92.65V8.86Zm177,204.12h0Z"/><path class="b" d="M35.68,357.23a2,2,0,0,1-2-2V128.54a2,2,0,0,1,4,0V351.92L170,282.28a2,2,0,1,1,1.86,3.54L36.61,357A2,2,0,0,1,35.68,357.23Z"/><path class="d" d="M133.11,22.22"/><path class="e" d="M170.91,284.05"/><polygon class="a" points="135.06 199.36 100.94 217.32 100.94 160.12 135.06 142.15 135.06 199.36"/><path class="b" d="M100.94,218.32a1,1,0,0,1-1-1v-57.2a1,1,0,0,1,.53-.89l34.12-18a1,1,0,0,1,1.47.89v57.2a1,1,0,0,1-.53.88l-34.12,18A1,1,0,0,1,100.94,218.32Zm1-57.6v54.94l32.12-16.91V143.81Zm33.12,38.64h0Z"/><path class="b" d="M35.68,325.72a1.5,1.5,0,0,1-1.41-2l29.78-82.34a1.5,1.5,0,0,1,2-.88l22.74,9.08,21.07-76.06a1.5,1.5,0,0,1,2.15-.92l15.12,8.11,27.75-80.2a1.5,1.5,0,0,1,2.35-.69l14.64,11.56a1.5,1.5,0,0,1-1.86,2.35l-13-10.25-27.64,79.87a1.5,1.5,0,0,1-2.13.83l-15-8.05L91.21,252a1.5,1.5,0,0,1-2,1l-22.86-9.13L37.09,324.73A1.5,1.5,0,0,1,35.68,325.72Z"/><polygon class="a" points="299.73 258.63 288.87 264.35 288.87 246.14 299.73 240.42 299.73 258.63"/><path class="b" d="M288.87,265.35a1,1,0,0,1-1-1V246.14a1,1,0,0,1,.53-.88l10.86-5.72a1,1,0,0,1,1.47.88v18.21a1,1,0,0,1-.53.88l-10.86,5.72A1,1,0,0,1,288.87,265.35Zm1-18.6v15.95l8.86-4.66V242.08Zm9.86,11.89h0Z"/><polygon class="a" points="430.05 201.54 383.54 226.02 383.54 148.06 430.05 123.58 430.05 201.54"/><path class="b" d="M383.54,227a1,1,0,0,1-1-1v-78a1,1,0,0,1,.53-.89l46.51-24.48a1,1,0,0,1,1.47.89v78a1,1,0,0,1-.53.88L384,226.91A1,1,0,0,1,383.54,227Zm1-78.36v75.7L429,200.94v-75.7ZM430,201.54h0Z"/><path class="b" d="M299.73,240.92a.5.5,0,0,1-.26-.07L134.81,142.58a.5.5,0,0,1,.51-.86L300,240a.5.5,0,0,1-.26.93Z"/><path class="b" d="M288.87,246.64a.5.5,0,0,1-.21,0l-187.93-86a.5.5,0,1,1,.42-.91l187.93,86a.5.5,0,0,1-.21,1Z"/><path class="b" d="M288.87,264.85l-.12,0-187.93-47a.5.5,0,1,1,.24-1l187.93,47a.5.5,0,0,1-.12,1Z"/><path class="b" d="M299.73,259.13a.49.49,0,0,1-.17,0L134.89,199.83a.5.5,0,0,1,.34-.94L299.9,258.16a.5.5,0,0,1-.17,1Z"/><path class="b" d="M322.65,353.53a1,1,0,0,1-1-1V141.33a1,1,0,0,1,.53-.88l126-66.32a1,1,0,0,1,1.47.88v211.2a1,1,0,0,1-.53.88l-126,66.32A1,1,0,0,1,322.65,353.53Zm1-211.6V350.87l124-65.26V76.67Zm125,144.28h0Z"/><path class="b" d="M266,353.53a1,1,0,0,1-1-1V141.33a1,1,0,0,1,.53-.88l126-66.32a1,1,0,0,1,1.47.88v211.2a1,1,0,0,1-.53.88l-126,66.32A1,1,0,0,1,266,353.53Zm1-211.6V350.87l124-65.26V76.67Zm125,144.28h0Z"/><path class="b" d="M322.65,142.33H266a1,1,0,0,1,0-2h56.69a1,1,0,0,1,0,2Z"/><path class="b" d="M448.63,287.21H391.94a1,1,0,0,1,0-2h56.69a1,1,0,1,1,0,2Z"/><path class="b" d="M322.65,353.53H266a1,1,0,0,1,0-2h56.69a1,1,0,0,1,0,2Z"/><polygon class="a" points="548.47 223.32 537.61 229.04 537.61 210.83 548.47 205.12 548.47 223.32"/><path class="b" d="M537.61,230a1,1,0,0,1-1-1V210.83a1,1,0,0,1,.53-.88L548,204.23a1,1,0,0,1,1.47.88v18.21a1,1,0,0,1-.53.88l-10.86,5.72A1,1,0,0,1,537.61,230Zm1-18.6v15.95l8.86-4.66V206.77Zm9.86,11.89h0Z"/><path class="b" d="M537.61,211.33a.49.49,0,0,1-.19,0L383.35,148.52a.5.5,0,0,1,.38-.93L537.8,210.37a.5.5,0,0,1-.19,1Z"/><path class="b" d="M537.61,229.54h0l-154.07-3a.5.5,0,0,1,0-1h0l154.07,3a.5.5,0,0,1,0,1Z"/><path class="b" d="M548.47,223.82h-.09L430,202a.5.5,0,1,1,.18-1l118.42,21.78a.5.5,0,0,1-.09,1Z"/><path class="b" d="M548.47,205.62a.5.5,0,0,1-.28-.09L429.76,124a.5.5,0,0,1,.57-.82L548.76,204.7a.5.5,0,0,1-.28.91Z"/><path class="b" d="M513.84,300.48a1,1,0,0,1-1-1V178.6a1,1,0,0,1,.53-.88l49.46-26a1,1,0,0,1,1.47.89V273.45a1,1,0,0,1-.53.88l-49.46,26A1,1,0,0,1,513.84,300.48Zm1-121.28V297.82l47.46-25V154.22Zm48.46,94.25h0Z"/><path class="b" d="M723.33,300.48a1,1,0,0,1-1-1V178.6a1,1,0,0,1,.53-.88l49.46-26a1,1,0,0,1,1.47.89V273.45a1,1,0,0,1-.53.88l-49.46,26A1,1,0,0,1,723.33,300.48Zm1-121.28V297.82l47.46-25V154.22Zm48.46,94.25h0Z"/><path class="b" d="M772.78,153.57H563.29a1,1,0,0,1,0-2H772.78a1,1,0,0,1,0,2Z"/><path class="b" d="M723.33,179.6H513.84a1,1,0,0,1,0-2H723.33a1,1,0,0,1,0,2Z"/><path class="b" d="M772.78,274.45H563.29a1,1,0,0,1,0-2H772.78a1,1,0,0,1,0,2Z"/><path class="b" d="M723.33,300.48H513.84a1,1,0,0,1,0-2H723.33a1,1,0,0,1,0,2Z"/><path class="b" d="M448.63,76H391.94a1,1,0,0,1,0-2h56.69a1,1,0,0,1,0,2Z"/><path class="f" d="M742.62,268.8"/><path class="f" d="M757.22,212"/><path class="f" d="M757.84,211.61"/><path class="f" d="M742.62,268.8"/></svg>