<svg xmlns="http://www.w3.org/2000/svg" viewBox="0 0 883.89 414.73"><defs><style>.a{fill:#edf9f5;}.b{fill:#a9e2d3;}.c{opacity:0.6;}.d{fill:#fff;}.e{fill:#313754;}</style></defs><title>Asset 1</title><rect class="a" x="107.94" y="20.61" width="215.08" height="381.42"/><path class="b" d="M158.07,379.2v-3.75h-1.12v-1.38l1.22-.08.22-2.15h1.53V374h2v1.47h-2v3.74c0,.93.36,1.38,1.11,1.38a2.46,2.46,0,0,0,.82-.18l.31,1.36a5.09,5.09,0,0,1-1.61.29C158.74,382,158.07,380.9,158.07,379.2Z"/><path class="b" d="M165,371.57a1.14,1.14,0,1,1,1.14,1A1.05,1.05,0,0,1,165,371.57Zm.21,2.42H167v7.86h-1.84Z"/><path class="b" d="M170.43,377.93a3.89,3.89,0,0,1,3.94-4.13,3.36,3.36,0,0,1,2.3.88l-.9,1.2a1.93,1.93,0,0,0-1.31-.58c-1.27,0-2.14,1-2.14,2.63s.86,2.61,2.09,2.61a2.58,2.58,0,0,0,1.63-.68l.75,1.22a3.88,3.88,0,0,1-2.57,1C172.08,382,170.43,380.53,170.43,377.93Z"/><path class="b" d="M179.94,370.54h1.81v7.06h.05l2.91-3.62h2l-2.7,3.2,3,4.66h-2l-2-3.41-1.23,1.42v2h-1.81Z"/><path class="b" d="M189.1,380.95l.86-1.17a3.47,3.47,0,0,0,2.17.88c.86,0,1.26-.4,1.26-.94s-.85-1-1.69-1.27c-1-.39-2.21-1-2.21-2.29s1.1-2.35,2.86-2.35a4.24,4.24,0,0,1,2.61.94l-.85,1.13a2.94,2.94,0,0,0-1.72-.69c-.79,0-1.17.38-1.17.87s.79.86,1.65,1.17c1.06.4,2.25.91,2.25,2.38s-1.07,2.44-3.05,2.44A4.91,4.91,0,0,1,189.1,380.95Z"/><path class="b" d="M197.82,380.78c2.82-2.75,4.6-4.53,4.6-6.09a1.57,1.57,0,0,0-1.68-1.75,2.8,2.8,0,0,0-2,1.13l-1-1a4.15,4.15,0,0,1,3.25-1.58,3,3,0,0,1,3.22,3.12c0,1.81-1.68,3.67-3.71,5.79.54-.05,1.21-.1,1.71-.1h2.49v1.56h-6.88Z"/><path class="b" d="M207.44,374.07l1.15-.08h3.28v1.47h-4.44Zm1.06-.9c0-1.63.75-2.82,2.61-2.82a4,4,0,0,1,1.44.28l-.35,1.38a2.2,2.2,0,0,0-.85-.19c-.65,0-1,.41-1,1.33v8.71H208.5Z"/><path class="b" d="M214.18,377.93a3.83,3.83,0,0,1,3.62-4.13c2.13,0,3.25,1.54,3.25,3.73a4.75,4.75,0,0,1-.08.9h-5a2.24,2.24,0,0,0,2.32,2.19,3.35,3.35,0,0,0,1.82-.57l.63,1.15a4.88,4.88,0,0,1-2.7.85A3.8,3.8,0,0,1,214.18,377.93Zm5.28-.76c0-1.21-.54-1.95-1.61-1.95a2,2,0,0,0-1.88,1.95Z"/><path class="b" d="M223.79,379.74c0-1.68,1.4-2.56,4.62-2.91,0-.85-.36-1.55-1.43-1.55a4.35,4.35,0,0,0-2.21.77l-.68-1.23a6.13,6.13,0,0,1,3.23-1c2,0,2.93,1.21,2.93,3.4v4.65h-1.51l-.14-.87h-.05a3.8,3.8,0,0,1-2.44,1.06A2.2,2.2,0,0,1,223.79,379.74Zm4.62,0V378c-2.13.27-2.84.83-2.84,1.62s.47,1,1.13,1A2.48,2.48,0,0,0,228.41,379.74Z"/><path class="b" d="M234.09,379.2v-3.75H233v-1.38l1.22-.08.22-2.15h1.53V374h2v1.47h-2v3.74c0,.93.36,1.38,1.11,1.38a2.46,2.46,0,0,0,.82-.18l.31,1.36a5.09,5.09,0,0,1-1.61.29C234.76,382,234.09,380.9,234.09,379.2Z"/><path class="b" d="M241.09,378.92V374h1.84v4.69c0,1.29.37,1.78,1.22,1.78.69,0,1.15-.32,1.74-1.09V374h1.84v7.86h-1.51l-.14-1.16H246a3.2,3.2,0,0,1-2.53,1.35C241.83,382,241.09,380.9,241.09,378.92Z"/><path class="b" d="M251.69,374h1.51l.14,1.4h.05a2.68,2.68,0,0,1,2.23-1.59,2,2,0,0,1,.89.16l-.32,1.6a2.67,2.67,0,0,0-.81-.13c-.63,0-1.38.43-1.86,1.63v4.8h-1.84Z"/><path class="b" d="M258.58,377.93a3.83,3.83,0,0,1,3.62-4.13c2.13,0,3.25,1.54,3.25,3.73a4.75,4.75,0,0,1-.08.9h-5a2.24,2.24,0,0,0,2.32,2.19,3.35,3.35,0,0,0,1.82-.57l.63,1.15a4.88,4.88,0,0,1-2.7.85A3.8,3.8,0,0,1,258.58,377.93Zm5.28-.76c0-1.21-.54-1.95-1.61-1.95a2,2,0,0,0-1.88,1.95Z"/><path class="b" d="M268,380.95l.86-1.17a3.47,3.47,0,0,0,2.17.88c.86,0,1.26-.4,1.26-.94s-.85-1-1.69-1.27c-1-.39-2.21-1-2.21-2.29s1.1-2.35,2.86-2.35a4.24,4.24,0,0,1,2.61.94l-.85,1.13a2.94,2.94,0,0,0-1.72-.69c-.79,0-1.17.38-1.17.87s.79.86,1.65,1.17c1.06.4,2.25.91,2.25,2.38S273,382,271,382A4.91,4.91,0,0,1,268,380.95Z"/><g class="c"><path class="b" d="M854.33,168l-23.06-20-31.58,37.28,11.65,42.58,20.57,22.82,27.24-62.59Zm-2.3,5,3.41,14.22-18,8.07q1.39-2,2.75-4l2.35-3.52,2.32-3.54q2.31-3.54,4.57-7.11l2.26-3.58ZM823.08,187.6l25-14.77-1.55,2.51q-2.21,3.61-4.38,7.23L840,186.2l-2.13,3.65c-1.24,2.16-2.47,4.31-3.67,6.5Zm7.79,7.84-20.21-8.17,10.28,1.17Zm1.51-41.92,18,15.63L823,185.32Zm-4.67,4-7.17,28.87-15.76-1.8Zm2.32,86-15.62-17.32-10.55-38.55,29.61,11Zm3.75-5.7,1.75-39.37,18.45-7Z"/></g><circle class="d" cx="54.47" cy="198.15" r="53.47"/><path class="b" d="M54.47,252.62a54.47,54.47,0,1,1,54.47-54.47A54.53,54.53,0,0,1,54.47,252.62Zm0-106.94a52.47,52.47,0,1,0,52.47,52.47A52.53,52.53,0,0,0,54.47,145.68Z"/><circle class="d" cx="215.48" cy="107.94" r="53.47"/><path class="b" d="M215.48,162.41A54.47,54.47,0,1,1,270,107.94,54.53,54.53,0,0,1,215.48,162.41Zm0-106.94A52.47,52.47,0,1,0,268,107.94,52.53,52.53,0,0,0,215.48,55.47Z"/><circle class="d" cx="215.48" cy="283.48" r="53.47"/><path class="b" d="M215.48,338A54.47,54.47,0,1,1,270,283.48,54.53,54.53,0,0,1,215.48,338Zm0-106.94A52.47,52.47,0,1,0,268,283.48,52.53,52.53,0,0,0,215.48,231Z"/><circle class="d" cx="376.49" cy="198.15" r="53.47"/><path class="b" d="M376.49,252.62A54.47,54.47,0,1,1,431,198.15,54.53,54.53,0,0,1,376.49,252.62Zm0-106.94A52.47,52.47,0,1,0,429,198.15,52.53,52.53,0,0,0,376.49,145.68Z"/><path class="b" d="M162,289.36H134.54a1,1,0,0,1-1-1V107.94a1,1,0,0,1,1-1H162a1,1,0,0,1,0,2H135.54V287.36H162a1,1,0,0,1,0,2Z"/><path class="b" d="M134.54,199.15h-26.6a1,1,0,0,1,0-2h26.6a1,1,0,0,1,0,2Z"/><path class="b" d="M296.42,289.36H269a1,1,0,0,1,0-2h26.47V108.94H269a1,1,0,0,1,0-2h27.47a1,1,0,0,1,1,1V288.36A1,1,0,0,1,296.42,289.36Z"/><path class="b" d="M323,199.15h-26.6a1,1,0,0,1,0-2H323a1,1,0,0,1,0,2Z"/><circle class="d" cx="510.03" cy="198.15" r="53.47"/><path class="b" d="M510,252.62a54.47,54.47,0,1,1,54.47-54.47A54.53,54.53,0,0,1,510,252.62Zm0-106.94a52.47,52.47,0,1,0,52.47,52.47A52.53,52.53,0,0,0,510,145.68Z"/><circle class="d" cx="510.03" cy="54.47" r="53.47"/><path class="b" d="M510,108.94A54.47,54.47,0,1,1,564.5,54.47,54.53,54.53,0,0,1,510,108.94ZM510,2A52.47,52.47,0,1,0,562.5,54.47,52.53,52.53,0,0,0,510,2Z"/><circle class="d" cx="510.03" cy="341.83" r="53.47"/><path class="b" d="M510,396.3a54.47,54.47,0,1,1,54.47-54.47A54.53,54.53,0,0,1,510,396.3Zm0-106.94a52.47,52.47,0,1,0,52.47,52.47A52.53,52.53,0,0,0,510,289.36Z"/><path class="b" d="M456.56,199.15H430a1,1,0,0,1,0-2h26.6a1,1,0,0,1,0,2Z"/><path class="b" d="M430,199.15l-.18,0A1,1,0,0,1,429,198l26.6-143.68a1,1,0,0,1,2,.36l-26.6,143.68A1,1,0,0,1,430,199.15Z"/><path class="b" d="M456.56,342.83a1,1,0,0,1-1-.82L429,198.33a1,1,0,0,1,2-.36l26.6,143.68a1,1,0,0,1-.8,1.17Z"/><circle class="d" cx="629.29" cy="198.15" r="38.8"/><path class="b" d="M629.29,238a39.8,39.8,0,1,1,39.8-39.8A39.85,39.85,0,0,1,629.29,238Zm0-77.6a37.8,37.8,0,1,0,37.8,37.8A37.84,37.84,0,0,0,629.29,160.35Z"/><path class="b" d="M590.1,199.15H563.5a1,1,0,0,1,0-2h26.6a1,1,0,0,1,0,2Z"/><path class="b" d="M563.5,342.83l-.18,0a1,1,0,0,1-.8-1.17L589.12,198a1,1,0,0,1,2,.36L564.48,342A1,1,0,0,1,563.5,342.83Z"/><path class="b" d="M590.1,199.15a1,1,0,0,1-1-.82L562.52,54.65a1,1,0,0,1,2-.36L591.09,198a1,1,0,0,1-.8,1.17Z"/><circle class="d" cx="722.02" cy="198.15" r="38.8"/><path class="b" d="M722,238a39.8,39.8,0,1,1,39.8-39.8A39.85,39.85,0,0,1,722,238Zm0-77.6a37.8,37.8,0,1,0,37.8,37.8A37.84,37.84,0,0,0,722,160.35Z"/><path class="b" d="M775.95,199.15H760.82a1,1,0,0,1,0-2h15.12a1,1,0,0,1,0,2Z"/><circle class="b" cx="510.03" cy="107.94" r="19.42"/><path class="d" d="M515.24,106.6c2.43-1.09,2.8-9.39,1.36-11.83-1.88-3.19-10.8-2.55-13.61-.27a21.19,21.19,0,0,0-.27,4.82h8.84v.77h-8.84s-3.93,0-3.93,0c-6.79,0-6.64,14.56,2.31,14.56a28.13,28.13,0,0,1,.9-4.84C503.77,104.84,511.23,108.39,515.24,106.6ZM506,98.14a1.82,1.82,0,1,1,1.85-1.82A1.83,1.83,0,0,1,506,98.14Z"/><path class="d" d="M518.66,100.41a25,25,0,0,1-.81,4.84c-1.78,5-9.24,1.43-13.24,3.23-2.43,1.09-2.8,9.39-1.36,11.83,1.87,3.19,10.79,2.55,13.61.27a21.17,21.17,0,0,0,.27-4.82h-8.84V115h8.84s4.36,0,4.36,0C527.74,115,528.3,100.41,518.66,100.41Zm-5.12,16.21a1.82,1.82,0,1,1-1.84,1.82A1.83,1.83,0,0,1,513.55,116.63Z"/><circle class="b" cx="510.03" cy="251.62" r="19.42"/><path class="d" d="M515.24,250.28c2.43-1.09,2.8-9.39,1.36-11.83-1.88-3.19-10.8-2.55-13.61-.27a21.19,21.19,0,0,0-.27,4.82h8.84v.77h-8.84s-3.93,0-3.93,0c-6.79,0-6.64,14.56,2.31,14.56a28.13,28.13,0,0,1,.9-4.84C503.77,248.52,511.23,252.07,515.24,250.28ZM506,241.82a1.82,1.82,0,1,1,1.85-1.82A1.83,1.83,0,0,1,506,241.82Z"/><path class="d" d="M518.66,244.09a25,25,0,0,1-.81,4.84c-1.78,5-9.24,1.43-13.24,3.23-2.43,1.09-2.8,9.39-1.36,11.83,1.87,3.19,10.79,2.55,13.61.27a21.17,21.17,0,0,0,.27-4.82h-8.84v-.77h8.84s4.36,0,4.36,0C527.74,258.66,528.3,244.09,518.66,244.09Zm-5.12,16.21a1.82,1.82,0,1,1-1.84,1.82A1.83,1.83,0,0,1,513.55,260.31Z"/><circle class="b" cx="510.03" cy="395.3" r="19.42"/><path class="d" d="M515.24,394c2.43-1.09,2.8-9.39,1.36-11.83-1.88-3.19-10.8-2.55-13.61-.27a21.19,21.19,0,0,0-.27,4.82h8.84v.77h-8.84s-3.93,0-3.93,0c-6.79,0-6.64,14.56,2.31,14.56a28.13,28.13,0,0,1,.9-4.84C503.77,392.2,511.23,395.75,515.24,394ZM506,385.5a1.82,1.82,0,1,1,1.85-1.82A1.83,1.83,0,0,1,506,385.5Z"/><path class="d" d="M518.66,387.78a25,25,0,0,1-.81,4.84c-1.78,5-9.24,1.43-13.24,3.23-2.43,1.09-2.8,9.39-1.36,11.83,1.87,3.19,10.79,2.55,13.61.27a21.17,21.17,0,0,0,.27-4.82h-8.84v-.77h8.84s4.36,0,4.36,0C527.74,402.34,528.3,387.78,518.66,387.78ZM513.55,404a1.82,1.82,0,1,1-1.84,1.82A1.83,1.83,0,0,1,513.55,404Z"/><circle class="b" cx="53.86" cy="251.62" r="19.42"/><path class="d" d="M53.86,252.7a1.11,1.11,0,0,1-1.11-1.11V235.74a1.11,1.11,0,0,1,2.22,0v15.85A1.11,1.11,0,0,1,53.86,252.7Z"/><path class="d" d="M59.75,252.7a1.11,1.11,0,0,1-1.11-1.11V238.5a1.11,1.11,0,1,1,2.22,0v13.09A1.11,1.11,0,0,1,59.75,252.7Z"/><path class="d" d="M48,252.7a1.11,1.11,0,0,1-1.11-1.11V238.5a1.11,1.11,0,1,1,2.22,0v13.09A1.11,1.11,0,0,1,48,252.7Z"/><path class="d" d="M53.86,269a1.11,1.11,0,0,1-1.11-1.11V251.59a1.11,1.11,0,1,1,2.22,0v16.31A1.11,1.11,0,0,1,53.86,269Z"/><path class="d" d="M40,260.63a1.11,1.11,0,0,1-.79-1.9l7.93-7.93a1.11,1.11,0,1,1,1.57,1.57l-7.93,7.93A1.11,1.11,0,0,1,40,260.63Z"/><path class="d" d="M67.68,260.63a1.11,1.11,0,0,1-.79-.33L59,252.37a1.11,1.11,0,1,1,1.57-1.57l7.93,7.93a1.11,1.11,0,0,1-.79,1.9Z"/><path class="d" d="M43.29,260.63H40a1.11,1.11,0,0,1-1.11-1.11v-3.26a1.11,1.11,0,0,1,2.22,0v2.15h2.15a1.11,1.11,0,0,1,0,2.22Z"/><path class="d" d="M53.86,269h0a1.11,1.11,0,0,1-.79-.33l-2.3-2.3a1.11,1.11,0,1,1,1.57-1.57l1.52,1.52,1.52-1.52a1.11,1.11,0,1,1,1.57,1.57l-2.3,2.3A1.11,1.11,0,0,1,53.86,269Z"/><path class="d" d="M67.68,260.63H64.42a1.11,1.11,0,1,1,0-2.22h2.15v-2.15a1.11,1.11,0,1,1,2.22,0v3.26A1.11,1.11,0,0,1,67.68,260.63Z"/><circle class="b" cx="376.49" cy="251.62" r="19.42"/><path class="d" d="M376.49,252.7a1.11,1.11,0,0,1-1.11-1.11V235.74a1.11,1.11,0,0,1,2.22,0v15.85A1.11,1.11,0,0,1,376.49,252.7Z"/><path class="d" d="M382.38,252.7a1.11,1.11,0,0,1-1.11-1.11V238.5a1.11,1.11,0,1,1,2.22,0v13.09A1.11,1.11,0,0,1,382.38,252.7Z"/><path class="d" d="M370.6,252.7a1.11,1.11,0,0,1-1.11-1.11V238.5a1.11,1.11,0,1,1,2.22,0v13.09A1.11,1.11,0,0,1,370.6,252.7Z"/><path class="d" d="M376.49,269a1.11,1.11,0,0,1-1.11-1.11V251.59a1.11,1.11,0,1,1,2.22,0v16.31A1.11,1.11,0,0,1,376.49,269Z"/><path class="d" d="M362.67,260.63a1.11,1.11,0,0,1-.79-1.9l7.93-7.93a1.11,1.11,0,0,1,1.57,1.57l-7.93,7.93A1.11,1.11,0,0,1,362.67,260.63Z"/><path class="d" d="M390.31,260.63a1.11,1.11,0,0,1-.79-.33l-7.93-7.93a1.11,1.11,0,1,1,1.57-1.57l7.93,7.93a1.11,1.11,0,0,1-.79,1.9Z"/><path class="d" d="M365.92,260.63h-3.26a1.11,1.11,0,0,1-1.11-1.11v-3.26a1.11,1.11,0,0,1,2.22,0v2.15h2.15a1.11,1.11,0,0,1,0,2.22Z"/><path class="d" d="M376.49,269h0a1.11,1.11,0,0,1-.79-.33l-2.3-2.3a1.11,1.11,0,0,1,1.57-1.57l1.52,1.52,1.52-1.52a1.11,1.11,0,1,1,1.57,1.57l-2.3,2.3A1.11,1.11,0,0,1,376.49,269Z"/><path class="d" d="M390.31,260.63h-3.26a1.11,1.11,0,0,1,0-2.22h2.15v-2.15a1.11,1.11,0,0,1,2.22,0v3.26A1.11,1.11,0,0,1,390.31,260.63Z"/><circle class="b" cx="629.95" cy="251.62" r="19.42"/><path class="d" d="M629.95,252.7a1.11,1.11,0,0,1-1.11-1.11V235.74a1.11,1.11,0,0,1,2.22,0v15.85A1.11,1.11,0,0,1,629.95,252.7Z"/><path class="d" d="M635.84,252.7a1.11,1.11,0,0,1-1.11-1.11V238.5a1.11,1.11,0,0,1,2.22,0v13.09A1.11,1.11,0,0,1,635.84,252.7Z"/><path class="d" d="M624.06,252.7a1.11,1.11,0,0,1-1.11-1.11V238.5a1.11,1.11,0,1,1,2.22,0v13.09A1.11,1.11,0,0,1,624.06,252.7Z"/><path class="d" d="M629.95,269a1.11,1.11,0,0,1-1.11-1.11V251.59a1.11,1.11,0,0,1,2.22,0v16.31A1.11,1.11,0,0,1,629.95,269Z"/><path class="d" d="M616.13,260.63a1.11,1.11,0,0,1-.79-1.9l7.93-7.93a1.11,1.11,0,0,1,1.57,1.57l-7.93,7.93A1.11,1.11,0,0,1,616.13,260.63Z"/><path class="d" d="M643.77,260.63a1.11,1.11,0,0,1-.79-.33l-7.93-7.93a1.11,1.11,0,1,1,1.57-1.57l7.93,7.93a1.11,1.11,0,0,1-.79,1.9Z"/><path class="d" d="M619.39,260.63h-3.26a1.11,1.11,0,0,1-1.11-1.11v-3.26a1.11,1.11,0,0,1,2.22,0v2.15h2.15a1.11,1.11,0,0,1,0,2.22Z"/><path class="d" d="M629.95,269h0a1.11,1.11,0,0,1-.79-.33l-2.3-2.3a1.11,1.11,0,0,1,1.57-1.57l1.52,1.52,1.52-1.52a1.11,1.11,0,0,1,1.57,1.57l-2.3,2.3A1.11,1.11,0,0,1,629.95,269Z"/><path class="d" d="M643.77,260.63h-3.26a1.11,1.11,0,0,1,0-2.22h2.15v-2.15a1.11,1.11,0,0,1,2.22,0v3.26A1.11,1.11,0,0,1,643.77,260.63Z"/><circle class="b" cx="722.02" cy="251.62" r="19.42"/><path class="d" d="M722,252.7a1.11,1.11,0,0,1-1.11-1.11V235.74a1.11,1.11,0,0,1,2.22,0v15.85A1.11,1.11,0,0,1,722,252.7Z"/><path class="d" d="M727.91,252.7a1.11,1.11,0,0,1-1.11-1.11V238.5a1.11,1.11,0,0,1,2.22,0v13.09A1.11,1.11,0,0,1,727.91,252.7Z"/><path class="d" d="M716.13,252.7a1.11,1.11,0,0,1-1.11-1.11V238.5a1.11,1.11,0,0,1,2.22,0v13.09A1.11,1.11,0,0,1,716.13,252.7Z"/><path class="d" d="M722,269a1.11,1.11,0,0,1-1.11-1.11V251.59a1.11,1.11,0,0,1,2.22,0v16.31A1.11,1.11,0,0,1,722,269Z"/><path class="d" d="M708.2,260.63a1.11,1.11,0,0,1-.79-1.9l7.93-7.93a1.11,1.11,0,1,1,1.57,1.57L709,260.31A1.11,1.11,0,0,1,708.2,260.63Z"/><path class="d" d="M735.84,260.63a1.11,1.11,0,0,1-.79-.33l-7.93-7.93a1.11,1.11,0,0,1,1.57-1.57l7.93,7.93a1.11,1.11,0,0,1-.79,1.9Z"/><path class="d" d="M711.46,260.63H708.2a1.11,1.11,0,0,1-1.11-1.11v-3.26a1.11,1.11,0,1,1,2.22,0v2.15h2.15a1.11,1.11,0,1,1,0,2.22Z"/><path class="d" d="M722,269h0a1.11,1.11,0,0,1-.79-.33l-2.3-2.3a1.11,1.11,0,1,1,1.57-1.57l1.52,1.52,1.52-1.52a1.11,1.11,0,0,1,1.57,1.57l-2.3,2.3A1.11,1.11,0,0,1,722,269Z"/><path class="d" d="M735.84,260.63h-3.26a1.11,1.11,0,0,1,0-2.22h2.15v-2.15a1.11,1.11,0,0,1,2.22,0v3.26A1.11,1.11,0,0,1,735.84,260.63Z"/><path class="e" d="M31.81,191.88H27.44v-1.55H38v1.55H33.65v12.88H31.81Z"/><path class="e" d="M42.29,190.7a1.25,1.25,0,0,1,2.5,0,1.25,1.25,0,0,1-2.5,0Zm.33,3.37h1.81v10.69H42.63Z"/><path class="e" d="M49.45,199.42c0-3.57,2.41-5.62,5.14-5.62a4.49,4.49,0,0,1,3.13,1.25l-.92,1.2a3.1,3.1,0,0,0-2.12-.94c-1.94,0-3.35,1.67-3.35,4.12s1.34,4.09,3.31,4.09a3.85,3.85,0,0,0,2.51-1.06l.78,1.21A5.2,5.2,0,0,1,54.46,205C51.62,205,49.45,203,49.45,199.42Z"/><path class="e" d="M62.46,189.09h1.78V199.7h.06l4.56-5.63h2l-3.58,4.3,4.05,6.39h-2l-3.12-5.14-2,2.33v2.81H62.46Z"/><path class="e" d="M74.35,203.53l.89-1.19a4.82,4.82,0,0,0,3.15,1.27c1.4,0,2.1-.75,2.1-1.66,0-1.1-1.26-1.59-2.44-2-1.5-.55-3.19-1.28-3.19-3.09s1.37-3,3.69-3a5.42,5.42,0,0,1,3.32,1.2L81,196.16a4,4,0,0,0-2.44-1c-1.35,0-2,.72-2,1.53,0,1,1.16,1.4,2.37,1.85,1.54.58,3.26,1.21,3.26,3.24,0,1.73-1.38,3.18-3.9,3.18A6.42,6.42,0,0,1,74.35,203.53Z"/><path class="e" d="M174.85,100.23h4.52c2.94,0,5,1.06,5,4.06s-2.11,4.27-5,4.27h-2.68v6.1h-1.84Zm4.26,6.84c2.25,0,3.48-.91,3.48-2.78s-1.24-2.57-3.48-2.57h-2.42v5.35Zm-.1,1,1.44-1,4.4,7.55h-2.08Z"/><path class="e" d="M188.39,109.34c0-3.48,2.34-5.62,4.8-5.62,2.73,0,4.27,2,4.27,5a5.71,5.71,0,0,1-.08,1h-7.2c.13,2.26,1.51,3.73,3.55,3.73a4.67,4.67,0,0,0,2.66-.85l.65,1.19a6.28,6.28,0,0,1-3.53,1.11C190.66,114.93,188.39,112.85,188.39,109.34Zm7.47-.87c0-2.14-1-3.31-2.63-3.31-1.5,0-2.85,1.21-3.06,3.31Z"/><path class="e" d="M201.49,109.34c0-3.57,2.41-5.62,5.14-5.62a4.49,4.49,0,0,1,3.13,1.25l-.92,1.2a3.1,3.1,0,0,0-2.12-.94c-1.94,0-3.35,1.67-3.35,4.12s1.34,4.09,3.31,4.09a3.85,3.85,0,0,0,2.51-1.06l.78,1.21a5.2,5.2,0,0,1-3.46,1.36C203.66,114.93,201.49,112.87,201.49,109.34Z"/><path class="e" d="M213.24,109.34c0-3.57,2.33-5.62,5-5.62s5,2.06,5,5.62-2.33,5.59-5,5.59S213.24,112.87,213.24,109.34Zm8,0c0-2.45-1.25-4.12-3.08-4.12s-3.08,1.67-3.08,4.12,1.25,4.09,3.08,4.09S221.28,111.79,221.28,109.34Z"/><path class="e" d="M228.16,104h1.49l.15,1.95h.06a3.68,3.68,0,0,1,3-2.21,2.48,2.48,0,0,1,1.14.22l-.34,1.59a3,3,0,0,0-1-.18c-.9,0-2,.65-2.7,2.46v6.86h-1.81Z"/><path class="e" d="M237,109.34c0-3.47,2.19-5.62,4.62-5.62a4.38,4.38,0,0,1,3,1.24l-.08-1.83V99h1.81v15.67h-1.49l-.15-1.26h-.06a4.73,4.73,0,0,1-3.24,1.53C238.75,114.93,237,112.9,237,109.34Zm7.54,2.61v-5.6a3.76,3.76,0,0,0-2.61-1.11c-1.71,0-3.07,1.65-3.07,4.08s1.06,4.09,2.93,4.09A3.69,3.69,0,0,0,244.56,111.95Z"/><path class="e" d="M251,113.45l.89-1.19a4.82,4.82,0,0,0,3.15,1.27c1.4,0,2.1-.75,2.1-1.66,0-1.1-1.26-1.59-2.44-2-1.5-.55-3.19-1.28-3.19-3.09s1.37-3,3.69-3a5.42,5.42,0,0,1,3.32,1.2l-.87,1.16a4,4,0,0,0-2.44-1c-1.35,0-2,.72-2,1.53,0,1,1.16,1.4,2.37,1.85,1.54.58,3.26,1.21,3.26,3.24,0,1.73-1.38,3.18-3.9,3.18A6.42,6.42,0,0,1,251,113.45Z"/><path class="e" d="M189.93,284.86c0-4.65,2.74-7.49,6.4-7.49a5.38,5.38,0,0,1,4,1.78l-1,1.2a3.92,3.92,0,0,0-2.93-1.36c-2.73,0-4.54,2.23-4.54,5.83s1.73,5.9,4.47,5.9a4.33,4.33,0,0,0,3.35-1.62l1,1.15a5.56,5.56,0,0,1-4.43,2.08C192.63,292.33,189.93,289.55,189.93,284.86Z"/><path class="e" d="M204.56,286.74c0-3.57,2.33-5.62,5-5.62s5,2.06,5,5.62-2.33,5.59-5,5.59S204.56,290.27,204.56,286.74Zm8,0c0-2.45-1.25-4.12-3.08-4.12s-3.08,1.67-3.08,4.12,1.25,4.09,3.08,4.09S212.6,289.19,212.6,286.74Z"/><path class="e" d="M219.48,281.38H221l.15,1.54h.06a5.1,5.1,0,0,1,3.59-1.81c2.25,0,3.26,1.45,3.26,4.18v6.77h-1.81v-6.54c0-2-.6-2.84-2-2.84-1.09,0-1.85.56-2.92,1.64v7.74h-1.81Z"/><path class="e" d="M232.16,281.38H234l2,6.07c.32,1,.67,2.13,1,3.15h.09c.32-1,.67-2.11,1-3.15l2-6.07h1.77l-3.78,10.69H236Z"/><path class="e" d="M331.59,190.32h8.32v1.55h-6.49v4.87h5.5v1.55h-5.5v6.46h-1.84Z"/><path class="e" d="M343.39,199.42c0-3.48,2.34-5.62,4.8-5.62,2.73,0,4.27,2,4.27,5a5.71,5.71,0,0,1-.08,1h-7.2c.13,2.26,1.51,3.73,3.55,3.73a4.67,4.67,0,0,0,2.66-.85l.65,1.19a6.28,6.28,0,0,1-3.53,1.11C345.66,205,343.39,202.93,343.39,199.42Zm7.47-.87c0-2.14-1-3.31-2.63-3.31-1.5,0-2.85,1.21-3.06,3.31Z"/><path class="e" d="M356.31,202c0-2.33,2-3.49,6.56-4,0-1.38-.46-2.7-2.21-2.7a5.89,5.89,0,0,0-3.19,1.15l-.71-1.24a7.84,7.84,0,0,1,4.2-1.4c2.61,0,3.71,1.73,3.71,4.4v6.56h-1.49l-.15-1.28H363a5.68,5.68,0,0,1-3.53,1.54A2.91,2.91,0,0,1,356.31,202Zm6.56.17v-3c-3.58.43-4.79,1.31-4.79,2.67,0,1.21.82,1.71,1.87,1.71A4.4,4.4,0,0,0,362.88,202.14Z"/><path class="e" d="M370.28,201.45v-5.91h-1.59v-1.37l1.67-.1.22-3h1.51v3H375v1.47h-2.9v5.94c0,1.31.42,2.06,1.65,2.06a3.57,3.57,0,0,0,1.22-.29l.35,1.36a6.44,6.44,0,0,1-2,.4C371,205,370.28,203.57,370.28,201.45Z"/><path class="e" d="M379.45,200.84v-6.77h1.81v6.54c0,2,.6,2.84,2,2.84,1.09,0,1.85-.54,2.86-1.8v-7.58h1.81v10.69h-1.49l-.15-1.67h-.06a4.54,4.54,0,0,1-3.52,1.94C380.46,205,379.45,203.56,379.45,200.84Z"/><path class="e" d="M393.75,194.06h1.49l.15,1.95h.06a3.68,3.68,0,0,1,3-2.21,2.48,2.48,0,0,1,1.14.22l-.34,1.59a3,3,0,0,0-1-.18c-.9,0-2,.65-2.7,2.46v6.86h-1.81Z"/><path class="e" d="M402.57,199.42c0-3.48,2.34-5.62,4.8-5.62,2.73,0,4.27,2,4.27,5a5.71,5.71,0,0,1-.08,1h-7.2c.13,2.26,1.51,3.73,3.55,3.73a4.67,4.67,0,0,0,2.66-.85l.65,1.19a6.28,6.28,0,0,1-3.53,1.11C404.84,205,402.57,202.93,402.57,199.42Zm7.47-.87c0-2.14-1-3.31-2.63-3.31-1.5,0-2.85,1.21-3.06,3.31Z"/><path class="e" d="M415.28,203.53l.89-1.19a4.82,4.82,0,0,0,3.15,1.27c1.4,0,2.1-.75,2.1-1.66,0-1.1-1.26-1.59-2.44-2-1.5-.55-3.19-1.28-3.19-3.09s1.37-3,3.69-3a5.42,5.42,0,0,1,3.32,1.2l-.87,1.16a4,4,0,0,0-2.44-1c-1.35,0-2,.72-2,1.53,0,1,1.16,1.4,2.37,1.85,1.54.58,3.26,1.21,3.26,3.24,0,1.73-1.38,3.18-3.9,3.18A6.42,6.42,0,0,1,415.28,203.53Z"/><path class="e" d="M478.24,30.85h2.21l2.77,7.71c.35,1,.68,2,1,3h.09c.35-1,.65-2,1-3l2.73-7.71h2.21V45.28h-1.71V37.33c0-1.26.14-3,.23-4.27h-.09l-1.15,3.29-2.72,7.47h-1.22l-2.73-7.47-1.14-3.29h-.09c.09,1.28.23,3,.23,4.27v7.95h-1.66Z"/><path class="e" d="M495.46,39.95c0-3.57,2.33-5.62,5-5.62s5,2.06,5,5.62-2.33,5.59-5,5.59S495.46,43.49,495.46,39.95Zm8,0c0-2.45-1.25-4.12-3.08-4.12s-3.08,1.67-3.08,4.12S498.58,44,500.41,44,503.5,42.4,503.5,39.95Z"/><path class="e" d="M509.62,39.95c0-3.47,2.19-5.62,4.62-5.62a4.38,4.38,0,0,1,3,1.24l-.08-1.83V29.61H519V45.28h-1.49L517.32,44h-.06A4.73,4.73,0,0,1,514,45.54C511.35,45.54,509.62,43.51,509.62,39.95Zm7.54,2.61V37a3.76,3.76,0,0,0-2.61-1.11c-1.71,0-3.07,1.65-3.07,4.08S512.55,44,514.42,44A3.69,3.69,0,0,0,517.16,42.56Z"/><path class="e" d="M524,39.95c0-3.48,2.34-5.62,4.8-5.62,2.73,0,4.27,2,4.27,5a5.71,5.71,0,0,1-.08,1h-7.2c.13,2.26,1.51,3.73,3.55,3.73a4.67,4.67,0,0,0,2.66-.85l.65,1.19a6.28,6.28,0,0,1-3.53,1.11C526.25,45.54,524,43.46,524,39.95Zm7.47-.87c0-2.14-1-3.31-2.63-3.31-1.5,0-2.85,1.21-3.06,3.31Z"/><path class="e" d="M537.88,43.13V29.61h1.81V43.26c0,.55.24.77.5.77a1.56,1.56,0,0,0,.4,0l.25,1.38a2.91,2.91,0,0,1-1,.17C538.43,45.54,537.88,44.68,537.88,43.13Z"/><path class="e" d="M474.34,56.13h1.9L477.75,64c.28,1.55.57,3.1.84,4.65h.09c.32-1.55.67-3.11,1-4.65l2-7.86h1.67l2,7.86c.35,1.53.69,3.09,1,4.65h.09c.28-1.56.54-3.12.82-4.65l1.51-7.86h1.77l-3,14.43h-2.21l-2.18-8.67c-.25-1.13-.48-2.18-.69-3.29h-.09c-.22,1.11-.47,2.16-.72,3.29l-2.14,8.67h-2.18Z"/><path class="e" d="M494.34,65.24c0-3.57,2.33-5.62,5-5.62s5,2.06,5,5.62-2.33,5.59-5,5.59S494.34,68.77,494.34,65.24Zm8,0c0-2.45-1.25-4.12-3.08-4.12s-3.08,1.67-3.08,4.12,1.25,4.09,3.08,4.09S502.38,67.69,502.38,65.24Z"/><path class="e" d="M509.26,59.88h1.49l.15,1.95H511a3.68,3.68,0,0,1,3-2.21,2.48,2.48,0,0,1,1.14.22l-.34,1.59a3,3,0,0,0-1-.18c-.9,0-2,.65-2.7,2.46v6.86h-1.81Z"/><path class="e" d="M519.09,54.9h1.78V65.51h.06l4.56-5.63h2l-3.58,4.3L528,70.57h-2l-3.12-5.14-2,2.33v2.81h-1.78Z"/><path class="e" d="M531,65.24c0-3.48,2.34-5.62,4.8-5.62,2.73,0,4.27,2,4.27,5a5.71,5.71,0,0,1-.08,1h-7.2c.13,2.26,1.51,3.73,3.55,3.73a4.67,4.67,0,0,0,2.66-.85l.65,1.19a6.28,6.28,0,0,1-3.53,1.11C533.25,70.83,531,68.75,531,65.24Zm7.47-.87c0-2.14-1-3.31-2.63-3.31-1.5,0-2.85,1.21-3.06,3.31Z"/><path class="e" d="M544.87,59.88h1.49l.15,1.95h.06a3.68,3.68,0,0,1,3-2.21,2.48,2.48,0,0,1,1.14.22l-.34,1.59a3,3,0,0,0-1-.18c-.9,0-2,.65-2.7,2.46v6.86h-1.81Z"/><path class="e" d="M607.36,190.32h4.12c3.23,0,5.42,1.09,5.42,4.25s-2.17,4.46-5.33,4.46h-2.37v5.72h-1.84Zm4,7.22c2.52,0,3.73-.91,3.73-3s-1.28-2.76-3.82-2.76h-2.05v5.73Z"/><path class="e" d="M621.84,194.06h1.49l.15,1.95h.06a3.68,3.68,0,0,1,3-2.21,2.48,2.48,0,0,1,1.14.22l-.34,1.59a3,3,0,0,0-1-.18c-.9,0-2,.65-2.7,2.46v6.86h-1.81Z"/><path class="e" d="M630.66,199.42c0-3.48,2.34-5.62,4.8-5.62,2.73,0,4.27,2,4.27,5a5.71,5.71,0,0,1-.08,1h-7.2c.13,2.26,1.51,3.73,3.55,3.73a4.67,4.67,0,0,0,2.66-.85l.65,1.19a6.28,6.28,0,0,1-3.53,1.11C632.93,205,630.66,202.93,630.66,199.42Zm7.47-.87c0-2.14-1-3.31-2.63-3.31-1.5,0-2.85,1.21-3.06,3.31Z"/><path class="e" d="M643.79,199.42c0-3.47,2.19-5.62,4.62-5.62a4.38,4.38,0,0,1,3,1.24l-.08-1.83v-4.12h1.81v15.67h-1.49l-.15-1.26h-.06a4.73,4.73,0,0,1-3.24,1.53C645.52,205,643.79,203,643.79,199.42Zm7.54,2.61v-5.6a3.76,3.76,0,0,0-2.61-1.11c-1.71,0-3.07,1.65-3.07,4.08s1.06,4.09,2.93,4.09A3.69,3.69,0,0,0,651.34,202Z"/><path class="e" d="M478.24,177.32h2.21l2.77,7.71c.35,1,.68,2,1,3h.09c.35-1,.65-2,1-3l2.73-7.71h2.21v14.43h-1.71V183.8c0-1.26.14-3,.23-4.27h-.09l-1.15,3.29-2.72,7.47h-1.22l-2.73-7.47-1.14-3.29h-.09c.09,1.28.23,3,.23,4.27v7.95h-1.66Z"/><path class="e" d="M495.46,186.42c0-3.57,2.33-5.62,5-5.62s5,2.06,5,5.62-2.33,5.59-5,5.59S495.46,190,495.46,186.42Zm8,0c0-2.45-1.25-4.12-3.08-4.12s-3.08,1.67-3.08,4.12,1.25,4.09,3.08,4.09S503.5,188.87,503.5,186.42Z"/><path class="e" d="M509.62,186.42c0-3.47,2.19-5.62,4.62-5.62a4.38,4.38,0,0,1,3,1.24l-.08-1.83v-4.12H519v15.67h-1.49l-.15-1.26h-.06A4.73,4.73,0,0,1,514,192C511.35,192,509.62,190,509.62,186.42Zm7.54,2.61v-5.6a3.76,3.76,0,0,0-2.61-1.11c-1.71,0-3.07,1.65-3.07,4.08s1.06,4.09,2.93,4.09A3.69,3.69,0,0,0,517.16,189Z"/><path class="e" d="M524,186.42c0-3.48,2.34-5.62,4.8-5.62,2.73,0,4.27,2,4.27,5a5.71,5.71,0,0,1-.08,1h-7.2c.13,2.26,1.51,3.73,3.55,3.73a4.67,4.67,0,0,0,2.66-.85l.65,1.19A6.28,6.28,0,0,1,529.1,192C526.25,192,524,189.93,524,186.42Zm7.47-.87c0-2.14-1-3.31-2.63-3.31-1.5,0-2.85,1.21-3.06,3.31Z"/><path class="e" d="M537.88,189.6V176.08h1.81v13.65c0,.55.24.77.5.77a1.56,1.56,0,0,0,.4,0l.25,1.38a2.91,2.91,0,0,1-1,.17C538.43,192,537.88,191.15,537.88,189.6Z"/><path class="e" d="M474.34,202.61h1.9l1.51,7.86c.28,1.55.57,3.1.84,4.65h.09c.32-1.55.67-3.11,1-4.65l2-7.86h1.67l2,7.86c.35,1.53.69,3.09,1,4.65h.09c.28-1.56.54-3.12.82-4.65l1.51-7.86h1.77l-3,14.43h-2.21l-2.18-8.67c-.25-1.13-.48-2.18-.69-3.29h-.09c-.22,1.11-.47,2.16-.72,3.29L479.58,217h-2.18Z"/><path class="e" d="M494.34,211.71c0-3.57,2.33-5.62,5-5.62s5,2.06,5,5.62-2.33,5.59-5,5.59S494.34,215.25,494.34,211.71Zm8,0c0-2.45-1.25-4.12-3.08-4.12s-3.08,1.67-3.08,4.12,1.25,4.09,3.08,4.09S502.38,214.16,502.38,211.71Z"/><path class="e" d="M509.26,206.35h1.49l.15,1.95H511a3.68,3.68,0,0,1,3-2.21,2.48,2.48,0,0,1,1.14.22l-.34,1.59a3,3,0,0,0-1-.18c-.9,0-2,.65-2.7,2.46V217h-1.81Z"/><path class="e" d="M519.09,201.37h1.78V212h.06l4.56-5.63h2l-3.58,4.3L528,217h-2l-3.12-5.14-2,2.33V217h-1.78Z"/><path class="e" d="M531,211.71c0-3.48,2.34-5.62,4.8-5.62,2.73,0,4.27,2,4.27,5a5.71,5.71,0,0,1-.08,1h-7.2c.13,2.26,1.51,3.73,3.55,3.73A4.67,4.67,0,0,0,539,215l.65,1.19a6.28,6.28,0,0,1-3.53,1.11C533.25,217.3,531,215.22,531,211.71Zm7.47-.87c0-2.14-1-3.31-2.63-3.31-1.5,0-2.85,1.21-3.06,3.31Z"/><path class="e" d="M544.87,206.35h1.49l.15,1.95h.06a3.68,3.68,0,0,1,3-2.21,2.48,2.48,0,0,1,1.14.22l-.34,1.59a3,3,0,0,0-1-.18c-.9,0-2,.65-2.7,2.46V217h-1.81Z"/><path class="e" d="M478.24,322.52h2.21l2.77,7.71c.35,1,.68,2,1,3h.09c.35-1,.65-2,1-3l2.73-7.71h2.21V337h-1.71V329c0-1.26.14-3,.23-4.27h-.09L487.57,328l-2.72,7.47h-1.22L480.91,328l-1.14-3.29h-.09c.09,1.28.23,3,.23,4.27V337h-1.66Z"/><path class="e" d="M495.46,331.62c0-3.57,2.33-5.62,5-5.62s5,2.06,5,5.62-2.33,5.59-5,5.59S495.46,335.16,495.46,331.62Zm8,0c0-2.45-1.25-4.12-3.08-4.12s-3.08,1.67-3.08,4.12,1.25,4.09,3.08,4.09S503.5,334.07,503.5,331.62Z"/><path class="e" d="M509.62,331.62c0-3.47,2.19-5.62,4.62-5.62a4.38,4.38,0,0,1,3,1.24l-.08-1.83v-4.12H519V337h-1.49l-.15-1.26h-.06a4.73,4.73,0,0,1-3.24,1.53C511.35,337.22,509.62,335.19,509.62,331.62Zm7.54,2.61v-5.6a3.76,3.76,0,0,0-2.61-1.11c-1.71,0-3.07,1.65-3.07,4.08s1.06,4.09,2.93,4.09A3.69,3.69,0,0,0,517.16,334.24Z"/><path class="e" d="M524,331.62c0-3.48,2.34-5.62,4.8-5.62,2.73,0,4.27,2,4.27,5a5.71,5.71,0,0,1-.08,1h-7.2c.13,2.26,1.51,3.73,3.55,3.73a4.67,4.67,0,0,0,2.66-.85l.65,1.19a6.28,6.28,0,0,1-3.53,1.11C526.25,337.22,524,335.13,524,331.62Zm7.47-.87c0-2.14-1-3.31-2.63-3.31-1.5,0-2.85,1.21-3.06,3.31Z"/><path class="e" d="M537.88,334.81V321.29h1.81v13.65c0,.55.24.77.5.77a1.56,1.56,0,0,0,.4,0l.25,1.38a2.91,2.91,0,0,1-1,.17C538.43,337.22,537.88,336.35,537.88,334.81Z"/><path class="e" d="M474.34,347.81h1.9l1.51,7.86c.28,1.55.57,3.1.84,4.65h.09c.32-1.55.67-3.11,1-4.65l2-7.86h1.67l2,7.86c.35,1.53.69,3.09,1,4.65h.09c.28-1.56.54-3.12.82-4.65l1.51-7.86h1.77l-3,14.43h-2.21l-2.18-8.67c-.25-1.13-.48-2.18-.69-3.29h-.09c-.22,1.11-.47,2.16-.72,3.29l-2.14,8.67h-2.18Z"/><path class="e" d="M494.34,356.91c0-3.57,2.33-5.62,5-5.62s5,2.06,5,5.62-2.33,5.59-5,5.59S494.34,360.45,494.34,356.91Zm8,0c0-2.45-1.25-4.12-3.08-4.12s-3.08,1.67-3.08,4.12,1.25,4.09,3.08,4.09S502.38,359.36,502.38,356.91Z"/><path class="e" d="M509.26,351.55h1.49l.15,1.95H511a3.68,3.68,0,0,1,3-2.21,2.48,2.48,0,0,1,1.14.22l-.34,1.59a3,3,0,0,0-1-.18c-.9,0-2,.65-2.7,2.46v6.86h-1.81Z"/><path class="e" d="M519.09,346.58h1.78v10.61h.06l4.56-5.63h2l-3.58,4.3,4.05,6.39h-2l-3.12-5.14-2,2.33v2.81h-1.78Z"/><path class="e" d="M531,356.91c0-3.48,2.34-5.62,4.8-5.62,2.73,0,4.27,2,4.27,5a5.71,5.71,0,0,1-.08,1h-7.2c.13,2.26,1.51,3.73,3.55,3.73a4.67,4.67,0,0,0,2.66-.85l.65,1.19a6.28,6.28,0,0,1-3.53,1.11C533.25,362.51,531,360.42,531,356.91Zm7.47-.87c0-2.14-1-3.31-2.63-3.31-1.5,0-2.85,1.21-3.06,3.31Z"/><path class="e" d="M544.87,351.55h1.49l.15,1.95h.06a3.68,3.68,0,0,1,3-2.21,2.48,2.48,0,0,1,1.14.22l-.34,1.59a3,3,0,0,0-1-.18c-.9,0-2,.65-2.7,2.46v6.86h-1.81Z"/><path class="b" d="M683.22,199.15H668.1a1,1,0,0,1,0-2h15.12a1,1,0,0,1,0,2Z"/><path class="b" d="M829.42,252.62a54.47,54.47,0,1,1,54.47-54.47A54.53,54.53,0,0,1,829.42,252.62Zm0-106.94a52.47,52.47,0,1,0,52.47,52.47A52.53,52.53,0,0,0,829.42,145.68Z"/><path class="e" d="M697.55,191.88h-4.37v-1.55h10.57v1.55h-4.37v12.88h-1.84Z"/><path class="e" d="M707.36,194.06h1.49L709,196h.06a3.68,3.68,0,0,1,3-2.21,2.48,2.48,0,0,1,1.14.22l-.34,1.59a3,3,0,0,0-1-.18c-.9,0-2,.65-2.7,2.46v6.86h-1.81Z"/><path class="e" d="M716,202c0-2.33,2-3.49,6.56-4,0-1.38-.46-2.7-2.21-2.7a5.89,5.89,0,0,0-3.19,1.15l-.71-1.24a7.84,7.84,0,0,1,4.2-1.4c2.61,0,3.71,1.73,3.71,4.4v6.56h-1.49l-.15-1.28h-.06a5.68,5.68,0,0,1-3.53,1.54A2.91,2.91,0,0,1,716,202Zm6.56.17v-3c-3.58.43-4.79,1.31-4.79,2.67,0,1.21.82,1.71,1.87,1.71A4.4,4.4,0,0,0,722.57,202.14Z"/><path class="e" d="M729.19,199.42c0-3.47,2.19-5.62,4.62-5.62a4.38,4.38,0,0,1,3,1.24l-.08-1.83v-4.12h1.81v15.67h-1.49l-.15-1.26h-.06A4.73,4.73,0,0,1,733.6,205C730.93,205,729.19,203,729.19,199.42Zm7.54,2.61v-5.6a3.76,3.76,0,0,0-2.61-1.11c-1.71,0-3.07,1.65-3.07,4.08s1.06,4.09,2.93,4.09A3.69,3.69,0,0,0,736.74,202Z"/><path class="e" d="M743.56,199.42c0-3.48,2.34-5.62,4.8-5.62,2.73,0,4.27,2,4.27,5a5.71,5.71,0,0,1-.08,1h-7.2c.13,2.26,1.51,3.73,3.55,3.73a4.67,4.67,0,0,0,2.66-.85l.65,1.19a6.28,6.28,0,0,1-3.53,1.11C745.83,205,743.56,202.93,743.56,199.42Zm7.47-.87c0-2.14-1-3.31-2.63-3.31-1.5,0-2.85,1.21-3.06,3.31Z"/><circle class="b" cx="829.42" cy="251.62" r="19.42"/><path class="d" d="M834.63,250.28c2.43-1.09,2.8-9.39,1.36-11.83-1.88-3.19-10.8-2.55-13.61-.27a21.19,21.19,0,0,0-.27,4.82h8.84v.77H822.1s-3.93,0-3.93,0c-6.79,0-6.64,14.56,2.31,14.56a28.13,28.13,0,0,1,.9-4.84C823.16,248.52,830.62,252.07,834.63,250.28Zm-9.26-8.46a1.82,1.82,0,1,1,1.85-1.82A1.83,1.83,0,0,1,825.37,241.82Z"/><path class="d" d="M838.05,244.09a25,25,0,0,1-.81,4.84c-1.78,5-9.24,1.43-13.24,3.23-2.43,1.09-2.8,9.39-1.36,11.83,1.87,3.19,10.79,2.55,13.61.27a21.17,21.17,0,0,0,.27-4.82h-8.84v-.77h8.84s4.36,0,4.36,0C847.13,258.66,847.69,244.09,838.05,244.09Zm-5.12,16.21a1.82,1.82,0,1,1-1.84,1.82A1.83,1.83,0,0,1,832.93,260.31Z"/><path class="e" d="M800.69,182.68c0-4.62,2.54-7.43,6.17-7.43s6.17,2.81,6.17,7.43-2.54,7.53-6.17,7.53S800.69,187.3,800.69,182.68Zm10.44,0c0-3.6-1.69-5.81-4.27-5.81s-4.27,2.22-4.27,5.81,1.69,5.92,4.27,5.92S811.13,186.27,811.13,182.68Z"/><path class="e" d="M818.16,179.26h1.49l.15,1.95h.06a3.68,3.68,0,0,1,3-2.21,2.48,2.48,0,0,1,1.14.22l-.34,1.59a3,3,0,0,0-1-.18c-.9,0-2,.65-2.7,2.46v6.86h-1.81Z"/><path class="e" d="M827,184.62c0-3.47,2.19-5.62,4.62-5.62a4.38,4.38,0,0,1,3,1.24l-.08-1.83v-4.12h1.81v15.67h-1.49l-.15-1.26h-.06a4.73,4.73,0,0,1-3.24,1.53C828.75,190.21,827,188.18,827,184.62Zm7.54,2.61v-5.6a3.76,3.76,0,0,0-2.61-1.11c-1.71,0-3.07,1.65-3.07,4.08s1.06,4.09,2.93,4.09A3.69,3.69,0,0,0,834.56,187.23Z"/><path class="e" d="M841.38,184.62c0-3.48,2.34-5.62,4.8-5.62,2.73,0,4.27,2,4.27,5a5.71,5.71,0,0,1-.08,1h-7.2c.13,2.26,1.51,3.73,3.55,3.73a4.67,4.67,0,0,0,2.66-.85l.65,1.19a6.28,6.28,0,0,1-3.53,1.11C843.65,190.21,841.38,188.13,841.38,184.62Zm7.47-.87c0-2.14-1-3.31-2.63-3.31-1.5,0-2.85,1.21-3.06,3.31Z"/><path class="e" d="M855.28,179.26h1.49l.15,1.95H857a3.68,3.68,0,0,1,3-2.21,2.48,2.48,0,0,1,1.14.22l-.34,1.59a3,3,0,0,0-1-.18c-.9,0-2,.65-2.7,2.46v6.86h-1.81Z"/><path class="e" d="M804.33,200.8h2.07l4.88,14.43h-1.95l-2.52-8.06c-.52-1.61-1-3.2-1.44-4.86h-.09c-.45,1.67-.91,3.25-1.43,4.86l-2.54,8.06h-1.87ZM802,209.37h6.64v1.47H802Z"/><path class="e" d="M814.53,217.29a3,3,0,0,1,1.57-2.42v-.09a2,2,0,0,1-1-1.75,2.56,2.56,0,0,1,1.18-2V211a3.72,3.72,0,0,1-1.38-2.87,3.79,3.79,0,0,1,4-3.81,4.34,4.34,0,0,1,1.51.26h3.73v1.39H822a3.08,3.08,0,0,1,.87,2.2,3.65,3.65,0,0,1-3.91,3.71,3.8,3.8,0,0,1-1.59-.36,1.56,1.56,0,0,0-.68,1.26c0,.68.44,1.16,1.87,1.16h2.08c2.48,0,3.73.78,3.73,2.55,0,2-2.1,3.7-5.4,3.7C816.34,220.15,814.53,219.13,814.53,217.29Zm8.06-.56c0-1-.75-1.33-2.15-1.33h-1.84a6.08,6.08,0,0,1-1.39-.16,2.23,2.23,0,0,0-1.09,1.79c0,1.15,1.16,1.87,3.1,1.87S822.59,217.84,822.59,216.73Zm-1.37-8.64a2.28,2.28,0,1,0-4.54,0,2.29,2.29,0,1,0,4.54,0Z"/><path class="e" d="M827.53,209.9c0-3.48,2.34-5.62,4.8-5.62,2.73,0,4.27,2,4.27,5a5.71,5.71,0,0,1-.08,1h-7.2c.13,2.26,1.51,3.73,3.55,3.73a4.67,4.67,0,0,0,2.66-.85l.65,1.19a6.28,6.28,0,0,1-3.53,1.11C829.8,215.5,827.53,213.42,827.53,209.9ZM835,209c0-2.14-1-3.31-2.63-3.31-1.5,0-2.85,1.21-3.06,3.31Z"/><path class="e" d="M841.42,204.55h1.49l.15,1.54h.06a5.1,5.1,0,0,1,3.59-1.81c2.25,0,3.26,1.45,3.26,4.18v6.77h-1.81V208.7c0-2-.6-2.84-2-2.84-1.09,0-1.85.56-2.92,1.64v7.74h-1.81Z"/><path class="e" d="M856,211.93V206h-1.59v-1.37l1.67-.1.22-3h1.51v3h2.9V206h-2.9V212c0,1.31.42,2.06,1.65,2.06a3.57,3.57,0,0,0,1.22-.29l.35,1.36a6.44,6.44,0,0,1-2,.4C856.73,215.5,856,214.06,856,211.93Z"/><circle class="b" cx="215.48" cy="336.95" r="19.42"/><path class="d" d="M220.54,339a7.73,7.73,0,1,1,7.73-7.73A7.74,7.74,0,0,1,220.54,339Zm0-11.59a3.86,3.86,0,1,0,3.86,3.86A3.87,3.87,0,0,0,220.54,327.37Z"/><path class="d" d="M204.94,348.77a1.93,1.93,0,0,1-1.37-3.3L215.08,334a1.93,1.93,0,0,1,2.73,2.73L206.31,348.2A1.93,1.93,0,0,1,204.94,348.77Z"/><path class="d" d="M211.6,347.86a1.93,1.93,0,0,1-1.37-.57l-2.88-2.88a1.93,1.93,0,0,1,2.73-2.73l2.88,2.88a1.93,1.93,0,0,1-1.37,3.3Z"/><circle class="b" cx="215.48" cy="161.41" r="19.42"/><path class="d" d="M220.54,163.42a7.73,7.73,0,1,1,7.73-7.73A7.74,7.74,0,0,1,220.54,163.42Zm0-11.59a3.86,3.86,0,1,0,3.86,3.86A3.87,3.87,0,0,0,220.54,151.83Z"/><path class="d" d="M204.94,173.23a1.93,1.93,0,0,1-1.37-3.3l11.51-11.51a1.93,1.93,0,0,1,2.73,2.73l-11.51,11.51A1.93,1.93,0,0,1,204.94,173.23Z"/><path class="d" d="M211.6,172.32a1.93,1.93,0,0,1-1.37-.57l-2.88-2.88a1.93,1.93,0,0,1,2.73-2.73L213,169a1.93,1.93,0,0,1-1.37,3.3Z"/><path class="b" d="M54.47,145.68a1,1,0,0,1-1-1v-33a1,1,0,0,1,2,0v33A1,1,0,0,1,54.47,145.68Z"/><path class="b" d="M54.47,143.76a1,1,0,0,1-.71-.29l-4.38-4.38a1,1,0,0,1,1.41-1.41l3.68,3.68,3.68-3.68a1,1,0,0,1,1.41,1.41l-4.38,4.38A1,1,0,0,1,54.47,143.76Z"/><g class="c"><path class="b" d="M69.83,49.84,55.61,37.51l-19.47,23,7.18,26.26L56,100.82,72.8,62.23ZM68.41,53l2.1,8.77-11.08,5,1.7-2.49L62.57,62,64,59.85q1.42-2.18,2.82-4.38l1.39-2.2Zm-17.85,9L66,52.8l-1,1.55q-1.36,2.22-2.7,4.46L61,61,59.68,63.3c-.76,1.33-1.52,2.66-2.26,4Zm4.81,4.83-12.46-5,6.34.72Zm.93-25.85L67.4,50.53l-16.9,10Zm-2.88,2.46L49,61.16,39.28,60Zm1.43,53L45.22,85.71l-6.5-23.77L57,68.74Zm2.31-3.51,1.08-24.27,11.37-4.33Z"/></g><path class="b" d="M54.47,102.38a34,34,0,1,1,34-34A34,34,0,0,1,54.47,102.38Zm0-65.94a32,32,0,1,0,32,32A32,32,0,0,0,54.47,36.45Z"/><circle class="b" cx="54.47" cy="101.38" r="11.98"/><path class="d" d="M57.68,100.55c1.5-.67,1.72-5.79.84-7.3-1.16-2-6.66-1.57-8.39-.17a13.07,13.07,0,0,0-.17,3h5.45v.47H47.53c-4.18,0-4.1,9,1.42,9a17.34,17.34,0,0,1,.56-3C50.61,99.47,55.21,101.66,57.68,100.55ZM52,95.34a1.12,1.12,0,1,1,1.14-1.12A1.13,1.13,0,0,1,52,95.34Z"/><path class="d" d="M59.79,96.74a15.4,15.4,0,0,1-.5,3c-1.1,3.07-5.7.88-8.17,2-1.5.67-1.73,5.79-.84,7.3,1.16,2,6.65,1.57,8.39.17a13.05,13.05,0,0,0,.17-3H53.4v-.47h8.14C65.39,105.72,65.73,96.74,59.79,96.74Zm-3.16,10a1.12,1.12,0,1,1-1.14,1.12A1.13,1.13,0,0,1,56.64,106.74Z"/></svg>