<svg xmlns="http://www.w3.org/2000/svg" viewBox="0 0 191.48 306.4"><defs><style>.a{fill:#a9e2d3;}</style></defs><title>Asset 15</title><polygon class="a" points="123.6 257.99 67.87 257.99 0 158.04 191.48 158.04 123.6 257.99"/><polygon class="a" points="113.98 306.4 77.49 306.4 67.87 257.99 123.6 257.99 113.98 306.4"/><path class="a" d="M105.58,59.71A12.38,12.38,0,1,1,118,47.33,12.39,12.39,0,0,1,105.58,59.71Zm0-19.76A7.38,7.38,0,1,0,113,47.33,7.39,7.39,0,0,0,105.58,39.95Z"/><path class="a" d="M143,149.46a22,22,0,1,1,22-22A22.05,22.05,0,0,1,143,149.46Zm0-39.05a17,17,0,1,0,17,17A17,17,0,0,0,143,110.41Z"/><path class="a" d="M44.66,115.92a17.7,17.7,0,1,1,17.7-17.7A17.72,17.72,0,0,1,44.66,115.92Zm0-30.4a12.7,12.7,0,1,0,12.7,12.7A12.71,12.71,0,0,0,44.66,85.52Z"/><rect class="a" y="132.1" width="191.48" height="19.53"/><path class="a" d="M143,110.41a2.5,2.5,0,0,1-2.5-2.5v-45a2.5,2.5,0,0,1,5,0v45A2.5,2.5,0,0,1,143,110.41Z"/><path class="a" d="M44.66,85.52a2.5,2.5,0,0,1-2.5-2.5V48.93a2.5,2.5,0,0,1,5,0V83A2.5,2.5,0,0,1,44.66,85.52Z"/><path class="a" d="M105.58,38.38a2.5,2.5,0,0,1-2.5-2.5V2.5a2.5,2.5,0,0,1,5,0V35.88A2.5,2.5,0,0,1,105.58,38.38Z"/><path class="a" d="M83,139.15a2.5,2.5,0,0,1-2.5-2.5V117.45a2.5,2.5,0,0,1,5,0v19.19A2.5,2.5,0,0,1,83,139.15Z"/></svg>