<svg xmlns="http://www.w3.org/2000/svg" viewBox="0 0 806.77 413.31"><defs><style>.a{fill:#edf9f5;}.b{fill:#a9e2d3;}.c{fill:#fff;}.d,.e,.f{fill:none;stroke-linecap:round;stroke-linejoin:round;}.d,.f{stroke:#a9e2d3;}.d,.e{stroke-width:2px;}.e{stroke:#313754;}</style></defs><title>Asset 18</title><polygon class="a" points="117.96 346.67 1 408.24 1 212.16 117.96 150.6 117.96 346.67"/><path class="b" d="M1,409.24a1,1,0,0,1-1-1V212.17a1,1,0,0,1,.53-.88l117-61.57a1,1,0,0,1,1.47.89V346.67a1,1,0,0,1-.53.88l-117,61.56A1,1,0,0,1,1,409.24ZM2,212.77V406.58l115-60.51V152.26Zm116,133.9h0Z"/><polygon class="c" points="125.14 350.75 8.18 412.31 8.18 216.24 125.14 154.68 125.14 350.75"/><path class="b" d="M8.18,413.31a1,1,0,0,1-1-1V216.24a1,1,0,0,1,.53-.88l117-61.57a1,1,0,0,1,1.47.89V350.75a1,1,0,0,1-.53.88L8.65,413.2A1,1,0,0,1,8.18,413.31Zm1-196.47V410.65l115-60.51V156.33Zm116,133.9h0Z"/><path class="b" d="M23.79,385.33a2,2,0,0,1-2-2V234.4a2,2,0,0,1,4,0V380L111.7,334.8a2,2,0,1,1,1.86,3.54L24.72,385.1A2,2,0,0,1,23.79,385.33Z"/><path class="d" d="M87.8,164.54"/><path class="e" d="M112.63,336.57"/><polygon class="a" points="89.08 280.92 66.66 292.72 66.66 255.14 89.08 243.34 89.08 280.92"/><path class="b" d="M66.66,293.72a1,1,0,0,1-1-1V255.14a1,1,0,0,1,.53-.88l22.42-11.8a1,1,0,0,1,1.47.88v37.58a1,1,0,0,1-.53.88l-22.42,11.8A1,1,0,0,1,66.66,293.72Zm1-38v35.32l20.42-10.75V245Zm21.42,25.18h0Z"/><path class="b" d="M23.79,364.46a1.5,1.5,0,0,1-1.41-2l19.57-54.1a1.5,1.5,0,0,1,2-.88l14.41,5.75L72,263.81a1.5,1.5,0,0,1,2.15-.92l9.4,5,18-52.12a1.5,1.5,0,0,1,2.35-.69l9.62,7.59a1.5,1.5,0,0,1-1.86,2.35l-8-6.29L85.82,270.57a1.5,1.5,0,0,1-2.13.83l-9.3-5L60.76,315.64a1.5,1.5,0,0,1-2,1l-14.52-5.8-19,52.64A1.5,1.5,0,0,1,23.79,364.46Z"/><polygon class="a" points="197.27 319.87 190.13 323.62 190.13 311.66 197.27 307.9 197.27 319.87"/><path class="b" d="M190.13,324.62a1,1,0,0,1-1-1v-12a1,1,0,0,1,.53-.88L196.8,307a1,1,0,0,1,1.47.88v12a1,1,0,0,1-.53.88l-7.14,3.76A1,1,0,0,1,190.13,324.62Zm1-12.36V322l5.14-2.7v-9.7Zm6.14,7.6h0Z"/><polygon class="a" points="282.89 282.36 252.33 298.44 252.33 247.22 282.89 231.14 282.89 282.36"/><path class="b" d="M252.33,299.44a1,1,0,0,1-1-1V247.22a1,1,0,0,1,.53-.88l30.55-16.08a1,1,0,0,1,1.47.88v51.22a1,1,0,0,1-.53.88L252.8,299.33A1,1,0,0,1,252.33,299.44Zm1-51.62v49l28.55-15v-49Zm29.55,34.53h0Z"/><path class="b" d="M197.27,308.4a.5.5,0,0,1-.26-.07L88.82,243.77a.5.5,0,0,1,.51-.86l108.19,64.56a.5.5,0,0,1-.26.93Z"/><path class="b" d="M190.13,312.16a.5.5,0,0,1-.21,0L66.45,255.59a.5.5,0,1,1,.42-.91l123.47,56.52a.5.5,0,0,1-.21,1Z"/><path class="b" d="M190.13,324.12l-.12,0L66.54,293.21a.5.5,0,1,1,.24-1l123.47,30.9a.5.5,0,0,1-.12,1Z"/><path class="b" d="M197.27,320.37a.49.49,0,0,1-.17,0L88.91,281.39a.5.5,0,0,1,.34-.94L197.44,319.4a.5.5,0,0,1-.17,1Z"/><path class="b" d="M212.33,382.56a1,1,0,0,1-1-1V242.8a1,1,0,0,1,.53-.88l82.77-43.57a1,1,0,0,1,1.47.88V338a1,1,0,0,1-.53.88l-82.77,43.57A1,1,0,0,1,212.33,382.56Zm1-139.16V379.9l80.77-42.52V200.88ZM295.1,338h0Z"/><path class="b" d="M175.08,382.56a1,1,0,0,1-1-1V242.8a1,1,0,0,1,.53-.88l82.77-43.57a1,1,0,0,1,1.47.88V338a1,1,0,0,1-.53.88l-82.77,43.57A1,1,0,0,1,175.08,382.56Zm1-139.16V379.9l80.77-42.52V200.88ZM257.85,338h0Z"/><path class="b" d="M212.33,243.8H175.08a1,1,0,0,1,0-2h37.25a1,1,0,0,1,0,2Z"/><path class="b" d="M295.1,339H257.85a1,1,0,0,1,0-2H295.1a1,1,0,0,1,0,2Z"/><path class="b" d="M212.33,382.56H175.08a1,1,0,0,1,0-2h37.25a1,1,0,0,1,0,2Z"/><polygon class="a" points="360.69 296.67 353.56 300.43 353.56 288.46 360.69 284.71 360.69 296.67"/><path class="b" d="M353.56,301.43a1,1,0,0,1-1-1v-12a1,1,0,0,1,.53-.88l7.14-3.76a1,1,0,0,1,1.47.88v12a1,1,0,0,1-.53.88L354,301.31A1,1,0,0,1,353.56,301.43Zm1-12.36v9.7l5.14-2.7v-9.7Zm6.14,7.6h0Z"/><path class="b" d="M353.56,289a.49.49,0,0,1-.19,0L252.14,247.68a.5.5,0,0,1,.38-.93L353.75,288a.5.5,0,0,1-.19,1Z"/><path class="b" d="M353.56,300.93h0l-101.22-2a.5.5,0,0,1,0-1h0l101.22,2a.5.5,0,0,1,0,1Z"/><path class="b" d="M360.69,297.17h-.09L282.8,282.85a.5.5,0,0,1,.18-1l77.81,14.31a.5.5,0,0,1-.09,1Z"/><path class="b" d="M360.69,285.21a.5.5,0,0,1-.28-.09L282.6,231.55a.5.5,0,0,1,.57-.82L361,284.29a.5.5,0,0,1-.28.91Z"/><path class="b" d="M337.94,347.7a1,1,0,0,1-1-1V267.28a1,1,0,0,1,.53-.88L370,249.3a1,1,0,0,1,1.47.88V329.6a1,1,0,0,1-.53.88l-32.49,17.1A1,1,0,0,1,337.94,347.7Zm1-79.82V345L369.43,329V251.84Zm31.49,61.71h0Z"/><path class="b" d="M475.57,347.7a1,1,0,0,1-1-1V267.28a1,1,0,0,1,.53-.88l32.49-17.1a1,1,0,0,1,1.47.88V329.6a1,1,0,0,1-.53.88L476,347.59A1,1,0,0,1,475.57,347.7Zm1-79.82V345L507.07,329V251.84Zm31.49,61.71h0Z"/><path class="b" d="M508.07,251.18H370.43a1,1,0,0,1,0-2H508.07a1,1,0,0,1,0,2Z"/><path class="b" d="M475.57,268.28H337.94a1,1,0,0,1,0-2H475.57a1,1,0,0,1,0,2Z"/><path class="b" d="M508.07,330.6H370.43a1,1,0,0,1,0-2H508.07a1,1,0,0,1,0,2Z"/><path class="b" d="M475.57,347.7H337.94a1,1,0,0,1,0-2H475.57a1,1,0,0,1,0,2Z"/><path class="b" d="M295.1,200.23H257.85a1,1,0,0,1,0-2H295.1a1,1,0,0,1,0,2Z"/><path class="f" d="M555.8,243.55"/><path class="f" d="M488.25,326.55"/><path class="f" d="M555.8,318.69"/><path class="f" d="M497.85,289.2"/><path class="f" d="M498.25,289"/><path class="f" d="M555.8,391.91"/><path class="f" d="M555.8,318.69"/><path class="f" d="M488.25,326.55"/><path class="b" d="M410.5,46H365.25V.73H410.5Zm-43.25-2H408.5V2.73H367.25Z"/><path class="b" d="M410.5,89.23H365.25V44H410.5Zm-43.25-2H408.5V46H367.25Z"/><path class="b" d="M410.5,132.47H365.25V87.23H410.5Zm-43.25-2H408.5V89.23H367.25Z"/><path class="b" d="M509.07,46H463.82V.73h45.25Zm-43.25-2h41.25V2.73H465.82Z"/><path class="b" d="M509.07,132.47H463.82V87.23h45.25Zm-43.25-2h41.25V89.23H465.82Z"/><path class="b" d="M509.07,175.72H463.82V130.47h45.25Zm-43.25-2h41.25V132.47H465.82Z"/><path class="b" d="M509.07,89.23H463.82V44h45.25Zm-43.25-2h41.25V46H465.82Z"/><path class="f" d="M593.25,259.26"/><path class="b" d="M597,45.25H551.79V0H597Zm-43.25-2H595V2H553.79Z"/><path class="b" d="M597,131.74H551.79V86.49H597Zm-43.25-2H595V88.49H553.79Z"/><path class="b" d="M597,175H551.79V129.74H597Zm-43.25-2H595V131.74H553.79Z"/><path class="b" d="M597,88.49H551.79V43.25H597Zm-43.25-2H595V45.25H553.79Z"/><path class="b" d="M597,261.48H551.79V216.24H597Zm-43.25-2H595V218.24H553.79Z"/><path class="b" d="M597,304.73H551.79V259.48H597Zm-43.25-2H595V261.48H553.79Z"/><path class="b" d="M597,218.24H551.79V173H597Zm-43.25-2H595V175H553.79Z"/><path class="b" d="M726.51,175H681.26V129.74h45.25Zm-43.25-2h41.25V131.74H683.26Z"/><path class="b" d="M726.51,218.24H681.26V173h45.25Zm-43.25-2h41.25V175H683.26Z"/><path class="b" d="M726.51,261.48H681.26V216.24h45.25Zm-43.25-2h41.25V218.24H683.26Z"/><path class="b" d="M806.77,218.24H761.52V173h45.25Zm-43.25-2h41.25V175H763.52Z"/><path class="f" d="M593.25,345.76"/><path class="b" d="M597,348H551.79V302.73H597Zm-43.25-2H595V304.73H553.79Z"/><path class="b" d="M597,391.23H551.79V346H597Zm-43.25-2H595V348H553.79Z"/><path class="b" d="M552.79,23.85H508.07a.5.5,0,0,1,0-1h44.72a.5.5,0,0,1,0,1Z"/><path class="b" d="M552.79,67.1H508.07a.5.5,0,0,1,0-1h44.72a.5.5,0,0,1,0,1Z"/><path class="b" d="M552.79,110.35H508.07a.5.5,0,0,1,0-1h44.72a.5.5,0,0,1,0,1Z"/><path class="b" d="M552.79,152.87H508.07a.5.5,0,0,1,0-1h44.72a.5.5,0,0,1,0,1Z"/><path class="b" d="M508.07,250.68a.5.5,0,0,1-.39-.82L552.4,195.3a.5.5,0,0,1,.77.63L508.45,250.5A.5.5,0,0,1,508.07,250.68Z"/><path class="b" d="M552.79,369.1l-.14,0-77.21-21.9a.5.5,0,0,1,.27-1l77.21,21.9a.5.5,0,0,1-.14,1Z"/><path class="b" d="M464.82,153.6a.5.5,0,0,1-.42-.23L409.08,66.14l0,0h0a.5.5,0,0,1-.06-.24h0a.48.48,0,0,1,0-.12h0a.5.5,0,0,1,.15-.24h0l0,0,13.47-10.53L409,22.82h0a.5.5,0,0,1,.22-.62l0,0h0a.51.51,0,0,1,.21,0h55.31a.5.5,0,0,1,.31.89L437.74,44.43l27.4,21.78a.5.5,0,0,1-.31.89h0l-26.74-.35,27.17,42.83a.5.5,0,0,1-.73.66L438.39,89.47l26.89,63.43a.5.5,0,0,1-.46.7ZM411.51,68.11,462,147.7,436.75,88.17Zm26.06,19.44,25.24,20.06L436.88,66.73l-8.18-.11ZM411,66.39l25,19.85-8.33-19.64Zm26.48-.65,25.93.34-26.44-21-8.42,6.59Zm-9.16-.12,8,.11-8.53-13.45-3.83,3Zm-17.35-.23,16.25.21-4.11-9.7ZM412.33,28l11.15,26.29,3.69-2.89Zm-.82-3.16L428,50.8l8.16-6.38Zm-.58-1.74,26,20.67,26.44-20.67Z"/><path class="b" d="M464.82,153.6a.5.5,0,0,1-.31-.11l-55.32-43.25a.5.5,0,0,1,.31-.89h55.32a.5.5,0,0,1,0,1H411l54.18,42.35a.5.5,0,0,1-.31.89Z"/><path class="b" d="M409.5,110.35a.5.5,0,0,1-.42-.77L464.4,22.36a.5.5,0,0,1,.84.54l-53.77,84.78,53-41.46a.5.5,0,1,1,.62.79l-55.32,43.25A.5.5,0,0,1,409.5,110.35Z"/><path class="b" d="M682.26,153.6a.5.5,0,0,1-.42-.22L595.62,23.63a.5.5,0,1,1,.83-.55l86.23,129.74a.5.5,0,0,1-.42.78Z"/><path class="b" d="M682.26,153.6a.5.5,0,0,1-.35-.15L595.68,67a.5.5,0,0,1,.71-.71l86.23,86.5a.5.5,0,0,1-.35.85Z"/><path class="b" d="M682.26,153.6a.5.5,0,0,1-.22-.05L595.81,110.3a.5.5,0,0,1,.45-.89l86.23,43.25a.5.5,0,0,1-.22.95Z"/><path class="b" d="M682.26,153.6h0L596,152.87a.5.5,0,0,1,0-1h0l86.23.73a.5.5,0,0,1,0,1Z"/><path class="b" d="M596,196.11a.5.5,0,0,1-.22-.95L682,152.65a.5.5,0,0,1,.44.9l-86.23,42.52A.5.5,0,0,1,596,196.11Z"/><path class="b" d="M596,239.36a.5.5,0,0,1-.35-.85l86.23-85.76a.5.5,0,1,1,.71.71l-86.23,85.76A.5.5,0,0,1,596,239.36Z"/><path class="b" d="M596,282.61a.5.5,0,0,1-.42-.78l86.23-129a.5.5,0,1,1,.83.56l-86.23,129A.5.5,0,0,1,596,282.61Z"/><path class="b" d="M596,325.86a.5.5,0,0,1-.45-.72l86.23-172.26a.5.5,0,0,1,.89.45L596.48,325.58A.5.5,0,0,1,596,325.86Z"/><path class="b" d="M596,369.1a.5.5,0,0,1-.19,0,.5.5,0,0,1-.28-.65L681.8,152.91a.5.5,0,0,1,.93.37L596.5,368.79A.5.5,0,0,1,596,369.1Z"/><path class="b" d="M682.26,196.48a.5.5,0,0,1-.45-.28L595.59,23.58a.5.5,0,1,1,.89-.45l86.23,172.62a.5.5,0,0,1-.45.72Z"/><path class="b" d="M682.26,196.48a.5.5,0,0,1-.42-.22L595.62,66.88a.5.5,0,0,1,.83-.55L682.68,195.7a.5.5,0,0,1-.42.78Z"/><path class="b" d="M682.26,196.48a.5.5,0,0,1-.35-.15L595.68,110.2a.5.5,0,0,1,.71-.71l86.23,86.13a.5.5,0,0,1-.35.85Z"/><path class="b" d="M682.26,196.48a.5.5,0,0,1-.23-.05l-86.23-43.61a.5.5,0,1,1,.45-.89l86.23,43.61a.5.5,0,0,1-.23.95Z"/><path class="b" d="M682.26,196.48h0L596,196.11a.5.5,0,0,1,0-1h0l86.23.36a.5.5,0,0,1,0,1Z"/><path class="b" d="M596,239.36a.5.5,0,0,1-.22-.95L682,195.53a.5.5,0,1,1,.45.9l-86.23,42.88A.5.5,0,0,1,596,239.36Z"/><path class="b" d="M596,282.61a.5.5,0,0,1-.35-.85l86.23-86.13a.5.5,0,1,1,.71.71l-86.23,86.13A.5.5,0,0,1,596,282.61Z"/><path class="b" d="M596,325.86a.5.5,0,0,1-.42-.78L681.84,195.7a.5.5,0,1,1,.83.55L596.45,325.63A.5.5,0,0,1,596,325.86Z"/><path class="b" d="M596,369.1a.5.5,0,0,1-.45-.72l86.23-172.63a.5.5,0,0,1,.89.45L596.48,368.83A.5.5,0,0,1,596,369.1Z"/><path class="b" d="M682.26,239.36a.5.5,0,0,1-.46-.31L595.57,23.54a.5.5,0,0,1,.93-.37l86.23,215.51a.5.5,0,0,1-.28.65A.5.5,0,0,1,682.26,239.36Z"/><path class="b" d="M682.26,239.36a.5.5,0,0,1-.45-.28L595.59,66.83a.5.5,0,0,1,.89-.45l86.23,172.26a.5.5,0,0,1-.45.72Z"/><path class="b" d="M682.26,239.36a.5.5,0,0,1-.42-.22l-86.23-129a.5.5,0,1,1,.83-.56l86.23,129a.5.5,0,0,1-.42.78Z"/><path class="b" d="M682.26,239.36a.5.5,0,0,1-.35-.15l-86.23-86.49a.5.5,0,1,1,.71-.71l86.23,86.49a.5.5,0,0,1-.35.85Z"/><path class="b" d="M682.26,239.36a.5.5,0,0,1-.22-.05l-86.23-43.25a.5.5,0,0,1,.45-.89l86.23,43.25a.5.5,0,0,1-.22.95Z"/><path class="b" d="M682.26,239.36H596a.5.5,0,0,1,0-1h86.23a.5.5,0,0,1,0,1Z"/><path class="b" d="M596,282.61a.5.5,0,0,1-.22-.95L682,238.41a.5.5,0,0,1,.45.89l-86.23,43.25A.5.5,0,0,1,596,282.61Z"/><path class="b" d="M596,325.86a.5.5,0,0,1-.35-.85l86.23-86.5a.5.5,0,1,1,.71.71l-86.23,86.5A.5.5,0,0,1,596,325.86Z"/><path class="b" d="M596,369.1a.5.5,0,0,1-.42-.78l86.23-129.74a.5.5,0,1,1,.83.55L596.45,368.88A.5.5,0,0,1,596,369.1Z"/><path class="b" d="M762.52,196.48h-37a.5.5,0,0,1,0-1h35.93l-36.31-42.79a.5.5,0,1,1,.76-.65l37,43.61a.5.5,0,0,1-.38.82Z"/><path class="b" d="M725.51,239.73a.5.5,0,0,1-.38-.83l37-43.25a.5.5,0,0,1,.76.65l-37,43.25A.5.5,0,0,1,725.51,239.73Z"/></svg>